<?xml version="1.0" encoding="utf-8"?>
<!-- Generator: Adobe Illustrator 16.0.0, SVG Export Plug-In . SVG Version: 6.00 Build 0)  -->
<!DOCTYPE svg PUBLIC "-//W3C//DTD SVG 1.1//EN" "http://www.w3.org/Graphics/SVG/1.1/DTD/svg11.dtd">
<svg version="1.1" id="Layer_1" xmlns="http://www.w3.org/2000/svg" xmlns:xlink="http://www.w3.org/1999/xlink" x="0px" y="0px"
	 width="756.151px" height="257.152px" viewBox="0 0 756.151 257.152" enable-background="new 0 0 756.151 257.152"
	 xml:space="preserve">
<rect x="0.075" y="0.075" fill="none" stroke="#A6A8AB" stroke-width="0.15" stroke-miterlimit="10" width="756" height="257.002"/>
<g>
	<g>
		<rect x="244.408" y="150.602" fill="#585A5E" width="190.976" height="55.461"/>
		<g>
			<g>
				<g>
					<g>
						<g>
							<g>
								<path fill="#FFFFFF" d="M260.774,183.575h-1.584l-2.455-9.24h1.399l1.927,7.762l1.914-7.762h1.426l1.914,7.762l1.927-7.762
									h1.399l-2.455,9.24h-1.584l-1.914-7.774L260.774,183.575z"/>
								<path fill="#FFFFFF" d="M275.004,181.636c-0.044,0.237-0.125,0.486-0.245,0.745c-0.119,0.26-0.29,0.497-0.515,0.713
									c-0.224,0.216-0.513,0.394-0.865,0.534s-0.788,0.212-1.307,0.212c-0.554,0-1.023-0.075-1.406-0.225s-0.7-0.341-0.95-0.574
									c-0.251-0.233-0.447-0.49-0.587-0.772c-0.141-0.281-0.245-0.555-0.311-0.818s-0.105-0.504-0.119-0.719
									c-0.013-0.216-0.02-0.377-0.02-0.482c0-0.149,0.009-0.346,0.027-0.587c0.017-0.242,0.061-0.497,0.132-0.766
									c0.07-0.269,0.176-0.539,0.317-0.812c0.141-0.273,0.332-0.52,0.574-0.74c0.242-0.219,0.543-0.397,0.904-0.534
									c0.361-0.136,0.801-0.204,1.32-0.204c0.668,0,1.203,0.116,1.604,0.35c0.4,0.232,0.708,0.525,0.924,0.877
									c0.215,0.353,0.36,0.738,0.436,1.156c0.075,0.418,0.121,0.807,0.139,1.168c0,0.053,0.002,0.107,0.006,0.164
									c0.004,0.059,0.007,0.113,0.007,0.166h-5.161c0,0.29,0.04,0.585,0.119,0.884c0.079,0.3,0.202,0.569,0.37,0.812
									c0.167,0.242,0.385,0.443,0.653,0.602s0.596,0.237,0.983,0.237c0.272,0,0.519-0.038,0.739-0.112
									c0.22-0.074,0.407-0.176,0.561-0.304c0.154-0.128,0.277-0.274,0.37-0.442c0.092-0.167,0.156-0.343,0.191-0.527H275.004z
									 M273.842,179.669c-0.009-0.221-0.04-0.463-0.093-0.727s-0.147-0.508-0.284-0.732c-0.137-0.225-0.323-0.411-0.561-0.561
									c-0.237-0.15-0.545-0.225-0.924-0.225c-0.422,0-0.77,0.076-1.043,0.23s-0.486,0.346-0.64,0.574s-0.257,0.473-0.31,0.732
									s-0.079,0.496-0.079,0.707H273.842z"/>
								<path fill="#FFFFFF" d="M276.363,178.851c0-0.221,0.037-0.463,0.112-0.727c0.075-0.264,0.215-0.508,0.422-0.732
									c0.207-0.225,0.497-0.412,0.871-0.561c0.374-0.15,0.855-0.225,1.445-0.225c0.273,0,0.565,0.025,0.878,0.078
									c0.312,0.054,0.603,0.159,0.871,0.317c0.269,0.159,0.491,0.386,0.667,0.68c0.176,0.296,0.26,0.688,0.251,1.182l-0.066,3.103
									c0,0.131,0.002,0.248,0.006,0.35s0.029,0.185,0.073,0.25c0.044,0.066,0.114,0.117,0.211,0.152
									c0.097,0.035,0.233,0.049,0.41,0.039v0.818c-0.08,0.018-0.157,0.031-0.231,0.04s-0.174,0.013-0.297,0.013
									c-0.158,0-0.306-0.011-0.442-0.032c-0.137-0.022-0.255-0.066-0.356-0.132c-0.102-0.066-0.185-0.163-0.251-0.291
									c-0.066-0.127-0.117-0.301-0.152-0.521c-0.114,0.211-0.255,0.393-0.422,0.541c-0.167,0.15-0.352,0.273-0.554,0.37
									c-0.203,0.097-0.416,0.167-0.641,0.212c-0.224,0.043-0.451,0.065-0.68,0.065c-0.704,0-1.273-0.161-1.709-0.481
									c-0.436-0.322-0.653-0.834-0.653-1.538c0-0.29,0.044-0.552,0.132-0.786c0.088-0.232,0.255-0.439,0.501-0.62
									c0.246-0.181,0.581-0.329,1.003-0.448s0.973-0.209,1.65-0.271c0.246-0.018,0.453-0.035,0.62-0.053s0.301-0.055,0.403-0.111
									c0.101-0.058,0.173-0.144,0.218-0.258c0.044-0.114,0.066-0.281,0.066-0.502c0-0.078-0.009-0.193-0.026-0.343
									s-0.075-0.3-0.172-0.448c-0.097-0.15-0.246-0.279-0.449-0.391c-0.203-0.109-0.488-0.164-0.858-0.164
									c-0.105,0-0.257,0.009-0.456,0.025c-0.198,0.019-0.394,0.073-0.587,0.166c-0.193,0.092-0.361,0.232-0.501,0.422
									s-0.207,0.46-0.198,0.812H276.363z M280.719,180.144c-0.087,0.07-0.179,0.121-0.275,0.152
									c-0.096,0.031-0.201,0.055-0.314,0.072c-0.114,0.018-0.243,0.033-0.386,0.046c-0.145,0.013-0.308,0.033-0.491,0.06
									c-0.253,0.044-0.496,0.086-0.727,0.125c-0.231,0.04-0.435,0.102-0.609,0.186c-0.175,0.084-0.312,0.204-0.413,0.363
									c-0.101,0.158-0.151,0.369-0.151,0.633c0,0.396,0.12,0.702,0.36,0.918c0.24,0.215,0.548,0.323,0.923,0.323
									c0.227,0,0.456-0.033,0.688-0.099c0.231-0.066,0.445-0.186,0.642-0.357s0.36-0.406,0.491-0.705
									c0.131-0.3,0.209-0.683,0.236-1.148L280.719,180.144z"/>
								<path fill="#FFFFFF" d="M284.31,176.87v-2.006h1.162v2.006h1.426v0.818h-1.426v4.264c0,0.123,0.002,0.24,0.007,0.35
									c0.004,0.11,0.026,0.209,0.066,0.297s0.108,0.156,0.205,0.205s0.238,0.072,0.422,0.072c0.123,0,0.247-0.011,0.37-0.033
									c0.123-0.021,0.242-0.051,0.356-0.086v0.818c-0.185,0.08-0.383,0.144-0.594,0.191c-0.211,0.049-0.418,0.073-0.621,0.073
									c-0.343,0-0.609-0.053-0.799-0.159c-0.189-0.105-0.326-0.239-0.409-0.402c-0.083-0.162-0.132-0.34-0.145-0.534
									c-0.013-0.193-0.02-0.378-0.02-0.555v-4.501h-1.201v-0.818H284.31z"/>
								<path fill="#FFFFFF" d="M289.272,174.335v3.473c0.308-0.423,0.649-0.729,1.023-0.918s0.799-0.283,1.274-0.283
									c0.37,0,0.682,0.049,0.938,0.145c0.255,0.098,0.464,0.225,0.627,0.383c0.163,0.158,0.286,0.332,0.37,0.521
									c0.083,0.189,0.145,0.377,0.185,0.561c0.04,0.186,0.062,0.359,0.066,0.521c0.004,0.164,0.007,0.289,0.007,0.377v4.461
									h-1.162v-4.104c0-0.194-0.004-0.409-0.013-0.647c-0.009-0.237-0.058-0.459-0.146-0.666s-0.227-0.381-0.416-0.521
									c-0.189-0.141-0.464-0.211-0.825-0.211c-0.158,0-0.348,0.025-0.567,0.079c-0.22,0.053-0.431,0.165-0.634,0.337
									c-0.203,0.171-0.374,0.422-0.515,0.752c-0.141,0.33-0.211,0.771-0.211,1.326v3.656h-1.162v-9.24H289.272z"/>
								<path fill="#FFFFFF" d="M301.602,181.636c-0.044,0.237-0.125,0.486-0.245,0.745c-0.119,0.26-0.29,0.497-0.515,0.713
									c-0.224,0.216-0.513,0.394-0.865,0.534s-0.788,0.212-1.307,0.212c-0.554,0-1.023-0.075-1.406-0.225s-0.7-0.341-0.95-0.574
									c-0.251-0.233-0.447-0.49-0.587-0.772c-0.141-0.281-0.245-0.555-0.311-0.818s-0.105-0.504-0.119-0.719
									c-0.013-0.216-0.02-0.377-0.02-0.482c0-0.149,0.009-0.346,0.027-0.587c0.017-0.242,0.061-0.497,0.132-0.766
									c0.07-0.269,0.176-0.539,0.317-0.812c0.141-0.273,0.332-0.52,0.574-0.74c0.242-0.219,0.543-0.397,0.904-0.534
									c0.361-0.136,0.801-0.204,1.32-0.204c0.668,0,1.203,0.116,1.604,0.35c0.4,0.232,0.708,0.525,0.924,0.877
									c0.215,0.353,0.36,0.738,0.436,1.156c0.075,0.418,0.121,0.807,0.139,1.168c0,0.053,0.002,0.107,0.006,0.164
									c0.004,0.059,0.007,0.113,0.007,0.166h-5.161c0,0.29,0.04,0.585,0.119,0.884c0.079,0.3,0.202,0.569,0.37,0.812
									c0.167,0.242,0.385,0.443,0.653,0.602s0.596,0.237,0.983,0.237c0.272,0,0.519-0.038,0.739-0.112
									c0.22-0.074,0.407-0.176,0.561-0.304c0.154-0.128,0.277-0.274,0.37-0.442c0.092-0.167,0.156-0.343,0.191-0.527H301.602z
									 M300.44,179.669c-0.009-0.221-0.04-0.463-0.093-0.727s-0.147-0.508-0.284-0.732c-0.137-0.225-0.323-0.411-0.561-0.561
									c-0.237-0.15-0.545-0.225-0.924-0.225c-0.422,0-0.77,0.076-1.043,0.23s-0.486,0.346-0.64,0.574s-0.257,0.473-0.31,0.732
									s-0.079,0.496-0.079,0.707H300.44z"/>
								<path fill="#FFFFFF" d="M306.934,177.425c-0.396,0.018-0.746,0.07-1.049,0.158s-0.563,0.225-0.779,0.409
									c-0.216,0.185-0.387,0.423-0.515,0.713c-0.127,0.29-0.205,0.646-0.231,1.069c-0.009,0.123-0.013,0.242-0.013,0.355
									c0,0.115,0,0.234,0,0.357v3.088h-1.162v-6.705h1.162v1.293h0.026c0.08-0.246,0.196-0.463,0.35-0.652
									c0.154-0.189,0.33-0.348,0.528-0.476c0.198-0.128,0.411-0.227,0.64-0.297s0.462-0.11,0.7-0.119l0.343-0.013V177.425z"/>
								<path fill="#FFFFFF" d="M316.887,178.388v1.043h-4.343v4.145h-1.241v-9.24h6.204v1.043h-4.963v3.01H316.887z"/>
								<path fill="#FFFFFF" d="M318.021,180.223c0-0.448,0.057-0.889,0.172-1.319c0.114-0.432,0.301-0.816,0.561-1.155
									c0.259-0.339,0.601-0.614,1.023-0.825s0.937-0.316,1.544-0.316c0.607,0,1.122,0.105,1.544,0.316s0.763,0.486,1.023,0.825
									c0.259,0.339,0.446,0.724,0.561,1.155c0.114,0.431,0.171,0.871,0.171,1.319c0,0.449-0.057,0.89-0.171,1.32
									c-0.115,0.431-0.302,0.816-0.561,1.155c-0.26,0.338-0.601,0.613-1.023,0.824s-0.938,0.317-1.544,0.317
									c-0.607,0-1.122-0.106-1.544-0.317s-0.764-0.486-1.023-0.824c-0.26-0.339-0.447-0.725-0.561-1.155
									C318.079,181.112,318.021,180.672,318.021,180.223z M319.25,180.223c0,0.666,0.083,1.187,0.25,1.563
									s0.365,0.657,0.594,0.841c0.229,0.185,0.458,0.296,0.686,0.335c0.229,0.039,0.41,0.06,0.542,0.06s0.312-0.021,0.541-0.06
									s0.458-0.15,0.687-0.335c0.229-0.184,0.427-0.464,0.594-0.841c0.167-0.377,0.251-0.897,0.251-1.563
									c0-0.665-0.083-1.187-0.251-1.563c-0.167-0.377-0.365-0.656-0.594-0.84c-0.229-0.185-0.458-0.297-0.687-0.336
									s-0.409-0.059-0.541-0.059s-0.312,0.02-0.542,0.059c-0.229,0.039-0.458,0.151-0.686,0.336
									c-0.229,0.184-0.427,0.463-0.594,0.84S319.25,179.558,319.25,180.223z"/>
								<path fill="#FFFFFF" d="M329.889,177.425c-0.396,0.018-0.746,0.07-1.049,0.158s-0.563,0.225-0.779,0.409
									c-0.216,0.185-0.387,0.423-0.515,0.713c-0.127,0.29-0.205,0.646-0.231,1.069c-0.009,0.123-0.013,0.242-0.013,0.355
									c0,0.115,0,0.234,0,0.357v3.088h-1.162v-6.705h1.162v1.293h0.026c0.08-0.246,0.196-0.463,0.35-0.652
									c0.154-0.189,0.33-0.348,0.528-0.476c0.198-0.128,0.411-0.227,0.64-0.297s0.462-0.11,0.7-0.119l0.343-0.013V177.425z"/>
								<path fill="#FFFFFF" d="M336.449,181.636c-0.044,0.237-0.125,0.486-0.245,0.745c-0.119,0.26-0.29,0.497-0.515,0.713
									c-0.224,0.216-0.513,0.394-0.865,0.534s-0.788,0.212-1.307,0.212c-0.554,0-1.023-0.075-1.406-0.225s-0.7-0.341-0.95-0.574
									c-0.251-0.233-0.447-0.49-0.587-0.772c-0.141-0.281-0.245-0.555-0.311-0.818s-0.105-0.504-0.119-0.719
									c-0.013-0.216-0.02-0.377-0.02-0.482c0-0.149,0.009-0.346,0.027-0.587c0.017-0.242,0.061-0.497,0.132-0.766
									c0.07-0.269,0.176-0.539,0.317-0.812c0.141-0.273,0.332-0.52,0.574-0.74c0.242-0.219,0.543-0.397,0.904-0.534
									c0.361-0.136,0.801-0.204,1.32-0.204c0.668,0,1.203,0.116,1.604,0.35c0.4,0.232,0.708,0.525,0.924,0.877
									c0.215,0.353,0.36,0.738,0.436,1.156c0.075,0.418,0.121,0.807,0.139,1.168c0,0.053,0.002,0.107,0.006,0.164
									c0.004,0.059,0.007,0.113,0.007,0.166h-5.161c0,0.29,0.04,0.585,0.119,0.884c0.079,0.3,0.202,0.569,0.37,0.812
									c0.167,0.242,0.385,0.443,0.653,0.602s0.596,0.237,0.983,0.237c0.272,0,0.519-0.038,0.739-0.112
									c0.22-0.074,0.407-0.176,0.561-0.304c0.154-0.128,0.277-0.274,0.37-0.442c0.092-0.167,0.156-0.343,0.191-0.527H336.449z
									 M335.288,179.669c-0.009-0.221-0.04-0.463-0.093-0.727s-0.147-0.508-0.284-0.732c-0.137-0.225-0.323-0.411-0.561-0.561
									c-0.237-0.15-0.545-0.225-0.924-0.225c-0.422,0-0.77,0.076-1.043,0.23s-0.486,0.346-0.64,0.574s-0.257,0.473-0.31,0.732
									s-0.079,0.496-0.079,0.707H335.288z"/>
								<path fill="#FFFFFF" d="M343.84,181.187c-0.018,0.203-0.068,0.453-0.152,0.752c-0.083,0.3-0.229,0.59-0.436,0.871
									c-0.207,0.282-0.497,0.524-0.871,0.727s-0.86,0.304-1.458,0.304c-0.115,0-0.273-0.009-0.475-0.026
									c-0.203-0.018-0.427-0.062-0.673-0.133c-0.247-0.07-0.495-0.182-0.746-0.336c-0.25-0.154-0.477-0.365-0.68-0.634
									s-0.37-0.608-0.501-1.022s-0.198-0.92-0.198-1.519c0-0.388,0.044-0.792,0.132-1.214c0.088-0.423,0.25-0.808,0.488-1.155
									s0.563-0.634,0.977-0.858c0.413-0.225,0.946-0.336,1.597-0.336c0.475,0,0.889,0.063,1.241,0.191
									c0.352,0.127,0.646,0.301,0.884,0.521c0.238,0.22,0.424,0.471,0.561,0.752c0.136,0.281,0.222,0.58,0.257,0.897h-1.109
									c-0.062-0.37-0.171-0.659-0.33-0.871c-0.158-0.211-0.33-0.365-0.515-0.462c-0.185-0.097-0.368-0.156-0.548-0.178
									c-0.18-0.022-0.319-0.033-0.416-0.033c-0.361,0-0.669,0.072-0.924,0.217c-0.255,0.146-0.462,0.342-0.62,0.588
									c-0.159,0.246-0.273,0.537-0.343,0.871c-0.071,0.335-0.105,0.691-0.105,1.069s0.04,0.739,0.119,1.083
									c0.079,0.343,0.2,0.646,0.363,0.91c0.163,0.264,0.376,0.473,0.64,0.627c0.264,0.154,0.581,0.231,0.951,0.231
									c0.325,0,0.601-0.062,0.825-0.185c0.225-0.123,0.407-0.275,0.548-0.456s0.242-0.378,0.304-0.594s0.097-0.416,0.105-0.601
									H343.84z"/>
								<path fill="#FFFFFF" d="M345.042,178.851c0-0.221,0.037-0.463,0.112-0.727c0.075-0.264,0.215-0.508,0.422-0.732
									c0.207-0.225,0.497-0.412,0.871-0.561c0.374-0.15,0.855-0.225,1.445-0.225c0.273,0,0.565,0.025,0.878,0.078
									c0.312,0.054,0.603,0.159,0.871,0.317c0.269,0.159,0.491,0.386,0.667,0.68c0.176,0.296,0.26,0.688,0.251,1.182l-0.066,3.103
									c0,0.131,0.002,0.248,0.006,0.35s0.029,0.185,0.073,0.25c0.044,0.066,0.114,0.117,0.211,0.152
									c0.097,0.035,0.233,0.049,0.41,0.039v0.818c-0.08,0.018-0.157,0.031-0.231,0.04s-0.174,0.013-0.297,0.013
									c-0.158,0-0.306-0.011-0.442-0.032c-0.137-0.022-0.255-0.066-0.356-0.132c-0.102-0.066-0.185-0.163-0.251-0.291
									c-0.066-0.127-0.117-0.301-0.152-0.521c-0.114,0.211-0.255,0.393-0.422,0.541c-0.167,0.15-0.352,0.273-0.554,0.37
									c-0.203,0.097-0.416,0.167-0.641,0.212c-0.224,0.043-0.451,0.065-0.68,0.065c-0.704,0-1.273-0.161-1.709-0.481
									c-0.436-0.322-0.653-0.834-0.653-1.538c0-0.29,0.044-0.552,0.132-0.786c0.088-0.232,0.255-0.439,0.501-0.62
									c0.246-0.181,0.581-0.329,1.003-0.448s0.973-0.209,1.65-0.271c0.246-0.018,0.453-0.035,0.62-0.053s0.301-0.055,0.403-0.111
									c0.101-0.058,0.173-0.144,0.218-0.258c0.044-0.114,0.066-0.281,0.066-0.502c0-0.078-0.009-0.193-0.026-0.343
									s-0.075-0.3-0.172-0.448c-0.097-0.15-0.246-0.279-0.449-0.391c-0.203-0.109-0.488-0.164-0.858-0.164
									c-0.105,0-0.257,0.009-0.456,0.025c-0.198,0.019-0.394,0.073-0.587,0.166c-0.193,0.092-0.361,0.232-0.501,0.422
									s-0.207,0.46-0.198,0.812H345.042z M349.398,180.144c-0.087,0.07-0.179,0.121-0.275,0.152
									c-0.096,0.031-0.201,0.055-0.314,0.072c-0.114,0.018-0.243,0.033-0.386,0.046c-0.145,0.013-0.308,0.033-0.491,0.06
									c-0.253,0.044-0.496,0.086-0.727,0.125c-0.231,0.04-0.435,0.102-0.609,0.186c-0.175,0.084-0.312,0.204-0.413,0.363
									c-0.101,0.158-0.151,0.369-0.151,0.633c0,0.396,0.12,0.702,0.36,0.918c0.24,0.215,0.548,0.323,0.923,0.323
									c0.227,0,0.456-0.033,0.688-0.099c0.231-0.066,0.445-0.186,0.642-0.357s0.36-0.406,0.491-0.705
									c0.131-0.3,0.209-0.683,0.236-1.148L349.398,180.144z"/>
								<path fill="#FFFFFF" d="M353.252,181.583c0.009,0.264,0.065,0.488,0.17,0.673c0.104,0.185,0.242,0.335,0.412,0.448
									c0.17,0.115,0.363,0.196,0.577,0.244c0.214,0.049,0.43,0.073,0.648,0.073c0.384,0,0.681-0.054,0.891-0.159
									c0.209-0.105,0.362-0.229,0.458-0.369s0.151-0.281,0.164-0.422c0.013-0.141,0.02-0.246,0.02-0.317
									c0-0.105-0.011-0.209-0.033-0.31c-0.022-0.102-0.081-0.198-0.177-0.291c-0.096-0.092-0.238-0.18-0.426-0.264
									c-0.188-0.084-0.444-0.165-0.768-0.244l-0.708-0.158c-0.28-0.062-0.546-0.133-0.8-0.211c-0.253-0.08-0.477-0.189-0.668-0.33
									c-0.193-0.141-0.346-0.324-0.459-0.549s-0.17-0.512-0.17-0.864c0-0.37,0.075-0.68,0.225-0.931
									c0.149-0.25,0.347-0.449,0.594-0.594c0.246-0.146,0.519-0.248,0.818-0.311c0.299-0.061,0.603-0.092,0.911-0.092
									c0.572,0,1.032,0.07,1.379,0.211s0.618,0.314,0.812,0.521c0.193,0.207,0.326,0.427,0.396,0.66
									c0.07,0.232,0.114,0.441,0.132,0.627h-1.108c-0.009-0.098-0.033-0.213-0.073-0.35s-0.115-0.27-0.226-0.396
									c-0.11-0.127-0.267-0.235-0.471-0.323c-0.203-0.088-0.473-0.132-0.809-0.132c-0.035,0-0.128,0.004-0.278,0.013
									c-0.15,0.009-0.307,0.046-0.471,0.112s-0.312,0.172-0.444,0.316c-0.132,0.146-0.199,0.35-0.199,0.614
									c0,0.237,0.051,0.427,0.152,0.567s0.238,0.251,0.41,0.33c0.172,0.08,0.371,0.143,0.596,0.191
									c0.225,0.049,0.457,0.1,0.695,0.152c0.344,0.078,0.662,0.16,0.953,0.244c0.291,0.084,0.545,0.193,0.761,0.33
									s0.384,0.314,0.503,0.534c0.119,0.22,0.179,0.501,0.179,0.845c0,0.352-0.062,0.648-0.185,0.891s-0.277,0.445-0.462,0.607
									c-0.185,0.163-0.389,0.289-0.614,0.377c-0.224,0.088-0.44,0.153-0.647,0.197c-0.207,0.044-0.387,0.07-0.541,0.08
									c-0.154,0.008-0.257,0.013-0.31,0.013c-0.502,0-0.935-0.06-1.3-0.179s-0.671-0.281-0.917-0.488
									c-0.247-0.207-0.431-0.446-0.554-0.719c-0.124-0.273-0.189-0.563-0.198-0.871H353.252z"/>
								<path fill="#FFFFFF" d="M359.667,176.87v-2.006h1.162v2.006h1.426v0.818h-1.426v4.264c0,0.123,0.002,0.24,0.007,0.35
									c0.004,0.11,0.026,0.209,0.066,0.297s0.108,0.156,0.205,0.205s0.238,0.072,0.422,0.072c0.123,0,0.247-0.011,0.37-0.033
									c0.123-0.021,0.242-0.051,0.356-0.086v0.818c-0.185,0.08-0.383,0.144-0.594,0.191c-0.211,0.049-0.418,0.073-0.621,0.073
									c-0.343,0-0.609-0.053-0.799-0.159c-0.189-0.105-0.326-0.239-0.409-0.402c-0.083-0.162-0.132-0.34-0.145-0.534
									c-0.013-0.193-0.02-0.378-0.02-0.555v-4.501h-1.201v-0.818H359.667z"/>
								<path fill="#FFFFFF" d="M363.442,174.335h1.162v1.215h-1.162V174.335z M364.604,176.87v6.705h-1.162v-6.705H364.604z"/>
								<path fill="#FFFFFF" d="M367.64,176.87v0.938c0.229-0.334,0.537-0.619,0.924-0.852c0.387-0.233,0.845-0.35,1.373-0.35
									c0.44,0,0.803,0.068,1.089,0.204c0.286,0.137,0.511,0.319,0.673,0.548s0.277,0.495,0.343,0.799
									c0.066,0.303,0.099,0.623,0.099,0.957v4.461h-1.162v-4.104c0-0.177-0.007-0.383-0.02-0.62
									c-0.013-0.238-0.062-0.463-0.145-0.674c-0.084-0.211-0.222-0.389-0.416-0.535c-0.193-0.145-0.471-0.217-0.832-0.217
									c-0.158,0-0.348,0.025-0.567,0.079c-0.22,0.053-0.431,0.165-0.634,0.337c-0.203,0.171-0.374,0.422-0.515,0.752
									c-0.141,0.33-0.211,0.771-0.211,1.326v3.656h-1.162v-6.705H367.64z"/>
								<path fill="#FFFFFF" d="M375.283,184.333c0.053,0.195,0.141,0.355,0.264,0.479c0.123,0.125,0.266,0.225,0.429,0.301
									c0.163,0.075,0.338,0.126,0.528,0.152c0.189,0.027,0.372,0.04,0.548,0.04c0.458,0,0.81-0.093,1.056-0.278
									c0.246-0.186,0.429-0.398,0.548-0.637c0.119-0.238,0.189-0.473,0.21-0.703c0.022-0.229,0.033-0.389,0.033-0.477v-0.73
									c-0.158,0.256-0.312,0.469-0.461,0.641c-0.15,0.172-0.311,0.311-0.482,0.416c-0.172,0.105-0.356,0.183-0.555,0.23
									c-0.198,0.049-0.42,0.073-0.667,0.073c-0.396,0-0.776-0.071-1.142-0.212s-0.687-0.357-0.964-0.652
									c-0.277-0.295-0.5-0.674-0.667-1.136s-0.25-1.019-0.25-1.67c0-0.105,0.004-0.267,0.013-0.481
									c0.008-0.216,0.04-0.455,0.092-0.72c0.053-0.264,0.139-0.534,0.257-0.812s0.286-0.533,0.501-0.766
									c0.216-0.233,0.489-0.422,0.818-0.568c0.33-0.145,0.737-0.217,1.221-0.217c0.554,0,1.027,0.102,1.419,0.303
									c0.392,0.203,0.693,0.498,0.904,0.885h0.04v-0.924h1.082v6.534c0,0.431-0.06,0.796-0.178,1.095
									c-0.119,0.3-0.271,0.551-0.456,0.753s-0.394,0.36-0.627,0.476c-0.233,0.113-0.46,0.202-0.68,0.264
									c-0.22,0.062-0.427,0.1-0.621,0.112s-0.343,0.02-0.449,0.02c-0.158,0-0.378-0.009-0.66-0.026s-0.57-0.081-0.864-0.19
									c-0.295-0.11-0.568-0.286-0.818-0.526c-0.251-0.242-0.429-0.591-0.535-1.047H375.283z M376.999,183.021
									c0.105,0,0.268-0.028,0.488-0.086c0.22-0.058,0.44-0.185,0.66-0.383c0.22-0.198,0.414-0.486,0.581-0.864
									c0.167-0.379,0.251-0.894,0.251-1.545c0-0.845-0.177-1.509-0.528-1.993c-0.352-0.483-0.872-0.726-1.558-0.726
									c-0.326,0-0.601,0.055-0.825,0.164c-0.224,0.111-0.409,0.25-0.554,0.416c-0.146,0.168-0.255,0.357-0.33,0.568
									c-0.075,0.211-0.132,0.416-0.172,0.613c-0.04,0.198-0.062,0.383-0.066,0.555s-0.006,0.301-0.006,0.389
									c0,0.678,0.081,1.211,0.244,1.598c0.163,0.388,0.356,0.676,0.581,0.865c0.225,0.189,0.453,0.308,0.687,0.355
									C376.684,182.997,376.867,183.021,376.999,183.021z"/>
								<path fill="#FFFFFF" d="M382.846,180.646c-0.009,0.309,0.044,0.594,0.158,0.857s0.286,0.493,0.515,0.687
									c0.229,0.194,0.509,0.346,0.839,0.456c0.33,0.109,0.705,0.164,1.128,0.164c0.413,0,0.764-0.048,1.05-0.145
									c0.285-0.097,0.52-0.225,0.699-0.383c0.181-0.158,0.312-0.342,0.396-0.548c0.083-0.206,0.125-0.421,0.125-0.64
									c0-0.282-0.057-0.518-0.172-0.707c-0.114-0.189-0.26-0.343-0.436-0.462c-0.176-0.118-0.376-0.214-0.6-0.284
									c-0.225-0.07-0.443-0.127-0.654-0.171c-0.527-0.114-1.031-0.222-1.512-0.323c-0.479-0.102-0.901-0.244-1.267-0.43
									c-0.365-0.185-0.655-0.434-0.871-0.746c-0.216-0.312-0.323-0.732-0.323-1.26c0-0.432,0.083-0.814,0.25-1.148
									c0.168-0.334,0.405-0.611,0.713-0.832c0.309-0.22,0.678-0.387,1.109-0.502c0.431-0.113,0.906-0.171,1.426-0.171
									c0.572,0,1.066,0.072,1.484,0.218c0.418,0.145,0.766,0.341,1.043,0.588c0.277,0.246,0.488,0.531,0.634,0.857
									s0.231,0.664,0.257,1.017h-1.24c-0.045-0.378-0.156-0.678-0.337-0.897c-0.181-0.221-0.385-0.385-0.614-0.495
									c-0.229-0.11-0.461-0.179-0.699-0.204c-0.237-0.027-0.427-0.041-0.567-0.041c-0.643,0-1.159,0.139-1.551,0.416
									s-0.587,0.654-0.587,1.129c0,0.281,0.062,0.508,0.191,0.68c0.127,0.172,0.297,0.312,0.508,0.423s0.455,0.196,0.732,0.257
									c0.277,0.062,0.569,0.123,0.878,0.186c0.413,0.078,0.829,0.17,1.247,0.27c0.418,0.102,0.797,0.254,1.135,0.456
									c0.34,0.202,0.614,0.474,0.826,0.812c0.211,0.34,0.316,0.785,0.316,1.34c0,0.458-0.072,0.846-0.219,1.162
									c-0.145,0.316-0.332,0.578-0.561,0.785s-0.484,0.367-0.766,0.482c-0.281,0.113-0.557,0.197-0.824,0.25
									c-0.27,0.053-0.52,0.084-0.753,0.093s-0.411,0.013-0.534,0.013c-0.326,0-0.702-0.031-1.129-0.092
									c-0.428-0.062-0.834-0.2-1.221-0.416c-0.388-0.215-0.72-0.537-0.997-0.964s-0.434-1.005-0.468-1.735H382.846z"/>
								<path fill="#FFFFFF" d="M396.561,181.636c-0.045,0.237-0.125,0.486-0.244,0.745c-0.119,0.26-0.291,0.497-0.516,0.713
									c-0.224,0.216-0.512,0.394-0.864,0.534s-0.788,0.212-1.307,0.212c-0.554,0-1.022-0.075-1.405-0.225s-0.7-0.341-0.951-0.574
									c-0.25-0.233-0.446-0.49-0.587-0.772c-0.142-0.281-0.245-0.555-0.311-0.818s-0.105-0.504-0.118-0.719
									c-0.014-0.216-0.021-0.377-0.021-0.482c0-0.149,0.009-0.346,0.026-0.587c0.018-0.242,0.062-0.497,0.133-0.766
									c0.07-0.269,0.176-0.539,0.316-0.812c0.141-0.273,0.332-0.52,0.574-0.74c0.242-0.219,0.543-0.397,0.904-0.534
									c0.36-0.136,0.801-0.204,1.32-0.204c0.668,0,1.203,0.116,1.604,0.35c0.4,0.232,0.708,0.525,0.924,0.877
									c0.215,0.353,0.36,0.738,0.436,1.156c0.074,0.418,0.121,0.807,0.139,1.168c0,0.053,0.002,0.107,0.006,0.164
									c0.005,0.059,0.008,0.113,0.008,0.166h-5.162c0,0.29,0.04,0.585,0.119,0.884c0.079,0.3,0.202,0.569,0.369,0.812
									c0.168,0.242,0.385,0.443,0.654,0.602c0.268,0.158,0.596,0.237,0.982,0.237c0.273,0,0.52-0.038,0.74-0.112
									c0.219-0.074,0.406-0.176,0.561-0.304s0.277-0.274,0.369-0.442c0.093-0.167,0.156-0.343,0.191-0.527H396.561z
									 M395.399,179.669c-0.009-0.221-0.039-0.463-0.092-0.727s-0.148-0.508-0.284-0.732c-0.137-0.225-0.323-0.411-0.562-0.561
									c-0.236-0.15-0.545-0.225-0.924-0.225c-0.422,0-0.77,0.076-1.043,0.23c-0.272,0.154-0.486,0.346-0.64,0.574
									s-0.257,0.473-0.31,0.732s-0.08,0.496-0.08,0.707H395.399z"/>
								<path fill="#FFFFFF" d="M401.893,177.425c-0.396,0.018-0.745,0.07-1.049,0.158s-0.563,0.225-0.779,0.409
									c-0.215,0.185-0.387,0.423-0.515,0.713s-0.204,0.646-0.231,1.069c-0.008,0.123-0.013,0.242-0.013,0.355
									c0,0.115,0,0.234,0,0.357v3.088h-1.161v-6.705h1.161v1.293h0.026c0.08-0.246,0.195-0.463,0.35-0.652s0.33-0.348,0.528-0.476
									s0.411-0.227,0.64-0.297c0.229-0.07,0.463-0.11,0.7-0.119l0.343-0.013V177.425z"/>
								<path fill="#FFFFFF" d="M407.384,176.87h1.241l-2.482,6.705h-1.32l-2.48-6.705h1.24l1.9,5.544L407.384,176.87z"/>
								<path fill="#FFFFFF" d="M409.522,174.335h1.162v1.215h-1.162V174.335z M410.684,176.87v6.705h-1.162v-6.705H410.684z"/>
								<path fill="#FFFFFF" d="M418.366,181.187c-0.018,0.203-0.068,0.453-0.151,0.752c-0.083,0.3-0.229,0.59-0.436,0.871
									c-0.206,0.282-0.497,0.524-0.871,0.727s-0.86,0.304-1.458,0.304c-0.115,0-0.273-0.009-0.476-0.026s-0.427-0.062-0.673-0.133
									c-0.247-0.07-0.496-0.182-0.746-0.336c-0.251-0.154-0.478-0.365-0.68-0.634c-0.203-0.269-0.37-0.608-0.502-1.022
									s-0.198-0.92-0.198-1.519c0-0.388,0.044-0.792,0.132-1.214c0.088-0.423,0.251-0.808,0.488-1.155
									c0.238-0.348,0.563-0.634,0.978-0.858c0.413-0.225,0.946-0.336,1.597-0.336c0.476,0,0.889,0.063,1.241,0.191
									c0.352,0.127,0.646,0.301,0.884,0.521c0.238,0.22,0.425,0.471,0.562,0.752c0.136,0.281,0.222,0.58,0.257,0.897h-1.108
									c-0.062-0.37-0.171-0.659-0.33-0.871c-0.158-0.211-0.329-0.365-0.515-0.462c-0.185-0.097-0.367-0.156-0.548-0.178
									c-0.181-0.022-0.319-0.033-0.415-0.033c-0.361,0-0.67,0.072-0.925,0.217c-0.255,0.146-0.462,0.342-0.62,0.588
									s-0.273,0.537-0.344,0.871c-0.07,0.335-0.105,0.691-0.105,1.069s0.04,0.739,0.119,1.083c0.079,0.343,0.2,0.646,0.363,0.91
									c0.162,0.264,0.376,0.473,0.64,0.627c0.265,0.154,0.581,0.231,0.95,0.231c0.326,0,0.602-0.062,0.825-0.185
									c0.225-0.123,0.407-0.275,0.548-0.456s0.242-0.378,0.304-0.594s0.097-0.416,0.105-0.601H418.366z"/>
								<path fill="#FFFFFF" d="M425.732,181.636c-0.044,0.237-0.126,0.486-0.245,0.745c-0.118,0.26-0.289,0.497-0.514,0.713
									s-0.514,0.394-0.865,0.534s-0.787,0.212-1.307,0.212c-0.555,0-1.023-0.075-1.406-0.225s-0.699-0.341-0.949-0.574
									c-0.252-0.233-0.447-0.49-0.588-0.772c-0.141-0.281-0.244-0.555-0.311-0.818s-0.105-0.504-0.119-0.719
									c-0.013-0.216-0.02-0.377-0.02-0.482c0-0.149,0.009-0.346,0.027-0.587c0.017-0.242,0.061-0.497,0.131-0.766
									s0.176-0.539,0.317-0.812c0.141-0.273,0.332-0.52,0.574-0.74c0.241-0.219,0.543-0.397,0.903-0.534
									c0.361-0.136,0.801-0.204,1.32-0.204c0.669,0,1.203,0.116,1.604,0.35c0.4,0.232,0.709,0.525,0.925,0.877
									c0.216,0.353,0.36,0.738,0.436,1.156s0.12,0.807,0.139,1.168c0,0.053,0.002,0.107,0.007,0.164
									c0.004,0.059,0.006,0.113,0.006,0.166h-5.16c0,0.29,0.039,0.585,0.118,0.884c0.079,0.3,0.202,0.569,0.37,0.812
									c0.166,0.242,0.385,0.443,0.652,0.602c0.27,0.158,0.597,0.237,0.984,0.237c0.271,0,0.519-0.038,0.738-0.112
									c0.221-0.074,0.407-0.176,0.562-0.304c0.153-0.128,0.276-0.274,0.37-0.442c0.092-0.167,0.155-0.343,0.191-0.527H425.732z
									 M424.571,179.669c-0.01-0.221-0.041-0.463-0.094-0.727s-0.146-0.508-0.283-0.732s-0.323-0.411-0.561-0.561
									c-0.238-0.15-0.546-0.225-0.924-0.225c-0.423,0-0.771,0.076-1.043,0.23c-0.273,0.154-0.486,0.346-0.641,0.574
									s-0.258,0.473-0.311,0.732s-0.078,0.496-0.078,0.707H424.571z"/>
							</g>
						</g>
					</g>
				</g>
				<rect x="244.408" y="50.075" fill="#C7C8C9" width="190.976" height="34.537"/>
				<g>
					<g>
						<g>
							<g>
								<path fill="#585A5E" d="M304.842,63.345h4.092c0.167,0,0.358,0.007,0.574,0.02s0.438,0.048,0.667,0.105
									c0.229,0.058,0.451,0.139,0.667,0.244c0.215,0.106,0.409,0.249,0.581,0.429c0.172,0.181,0.31,0.409,0.416,0.687
									c0.105,0.277,0.158,0.609,0.158,0.997c0,0.264-0.035,0.521-0.105,0.772c-0.071,0.251-0.174,0.48-0.31,0.687
									c-0.137,0.207-0.304,0.383-0.502,0.528c-0.198,0.146-0.42,0.244-0.667,0.297v0.04c0.31,0.114,0.554,0.25,0.731,0.409
									c0.178,0.158,0.311,0.332,0.399,0.521c0.088,0.189,0.144,0.394,0.166,0.614c0.022,0.22,0.038,0.449,0.047,0.686
									c0.009,0.317,0.015,0.585,0.02,0.805c0.004,0.22,0.015,0.412,0.033,0.574c0.018,0.163,0.051,0.308,0.1,0.436
									c0.049,0.127,0.122,0.257,0.219,0.389h-1.32c-0.079-0.105-0.143-0.209-0.191-0.31s-0.082-0.225-0.099-0.37
									c-0.018-0.146-0.031-0.319-0.04-0.521c-0.009-0.202-0.013-0.453-0.013-0.752c0-0.238-0.013-0.473-0.04-0.706
									c-0.026-0.233-0.097-0.444-0.211-0.634c-0.115-0.189-0.289-0.341-0.521-0.456c-0.233-0.114-0.557-0.171-0.97-0.171h-2.64
									v3.92h-1.241V63.345z M306.083,67.622h2.772c0.149,0,0.328-0.02,0.535-0.059c0.207-0.04,0.407-0.119,0.601-0.238
									c0.193-0.119,0.356-0.286,0.488-0.501c0.132-0.216,0.198-0.504,0.198-0.865c0-0.299-0.051-0.55-0.152-0.752
									c-0.102-0.202-0.24-0.365-0.416-0.488c-0.176-0.123-0.387-0.209-0.633-0.257c-0.247-0.048-0.515-0.073-0.805-0.073h-2.587
									V67.622z"/>
								<path fill="#585A5E" d="M319.6,70.645c-0.044,0.238-0.125,0.486-0.245,0.746c-0.119,0.26-0.29,0.498-0.515,0.713
									c-0.224,0.216-0.513,0.394-0.865,0.535s-0.788,0.211-1.307,0.211c-0.554,0-1.023-0.075-1.406-0.225s-0.7-0.341-0.95-0.574
									c-0.251-0.233-0.447-0.49-0.587-0.772c-0.141-0.282-0.245-0.555-0.311-0.818c-0.066-0.264-0.105-0.504-0.119-0.72
									c-0.013-0.215-0.02-0.376-0.02-0.481c0-0.15,0.009-0.346,0.027-0.587c0.017-0.242,0.061-0.497,0.132-0.766
									c0.07-0.269,0.176-0.539,0.317-0.812c0.141-0.272,0.332-0.519,0.574-0.739c0.242-0.22,0.543-0.398,0.904-0.535
									c0.361-0.136,0.801-0.205,1.32-0.205c0.668,0,1.203,0.117,1.604,0.35c0.4,0.233,0.708,0.526,0.924,0.877
									c0.215,0.352,0.36,0.737,0.436,1.155c0.075,0.418,0.121,0.808,0.139,1.168c0,0.053,0.002,0.108,0.006,0.165
									c0.004,0.058,0.007,0.112,0.007,0.165h-5.161c0,0.291,0.04,0.585,0.119,0.884c0.079,0.299,0.202,0.57,0.37,0.812
									c0.167,0.242,0.385,0.442,0.653,0.601s0.596,0.238,0.983,0.238c0.272,0,0.519-0.038,0.739-0.112
									c0.22-0.075,0.407-0.176,0.561-0.304c0.154-0.127,0.277-0.275,0.37-0.442c0.092-0.167,0.156-0.343,0.191-0.528H319.6z
									 M318.438,68.678c-0.009-0.22-0.04-0.462-0.093-0.726c-0.053-0.264-0.147-0.508-0.284-0.732
									c-0.137-0.225-0.323-0.411-0.561-0.561c-0.237-0.149-0.545-0.225-0.924-0.225c-0.422,0-0.77,0.077-1.043,0.231
									c-0.273,0.154-0.486,0.346-0.64,0.574c-0.154,0.229-0.257,0.473-0.31,0.733s-0.079,0.495-0.079,0.706H318.438z"/>
								<path fill="#585A5E" d="M327.189,63.345v9.24h-1.083v-0.924h-0.04c-0.053,0.105-0.132,0.229-0.238,0.37
									c-0.105,0.141-0.247,0.271-0.422,0.389c-0.176,0.119-0.392,0.22-0.646,0.304c-0.255,0.083-0.559,0.125-0.911,0.125
									c-0.493,0-0.928-0.088-1.307-0.264s-0.695-0.424-0.951-0.746c-0.255-0.321-0.451-0.704-0.587-1.148
									c-0.136-0.444-0.205-0.935-0.205-1.472c0-0.352,0.035-0.737,0.106-1.155c0.07-0.418,0.215-0.81,0.436-1.175
									c0.22-0.365,0.526-0.668,0.917-0.911c0.391-0.242,0.913-0.363,1.564-0.363c0.449,0,0.86,0.075,1.234,0.225
									s0.697,0.453,0.97,0.911v-3.406H327.189z M322.028,69.219c0,0.634,0.077,1.138,0.231,1.512
									c0.154,0.374,0.338,0.656,0.554,0.845c0.215,0.189,0.442,0.312,0.68,0.37c0.238,0.057,0.44,0.086,0.607,0.086
									c0.255,0,0.503-0.051,0.746-0.152s0.456-0.264,0.64-0.489c0.185-0.224,0.334-0.517,0.449-0.877
									c0.114-0.361,0.171-0.801,0.171-1.32c0-0.484-0.055-0.899-0.165-1.247c-0.11-0.348-0.262-0.634-0.456-0.858
									c-0.193-0.225-0.416-0.39-0.667-0.495c-0.25-0.106-0.513-0.159-0.785-0.159c-0.282,0-0.543,0.053-0.786,0.159
									c-0.242,0.105-0.453,0.271-0.633,0.495c-0.181,0.224-0.324,0.513-0.429,0.864C322.081,68.304,322.028,68.727,322.028,69.219
									z"/>
								<path fill="#585A5E" d="M329.063,63.345h1.162v1.215h-1.162V63.345z M330.225,65.88v6.706h-1.162V65.88H330.225z"/>
								<path fill="#585A5E" d="M332.786,70.592c0.009,0.264,0.065,0.488,0.17,0.673c0.104,0.185,0.242,0.334,0.412,0.449
									c0.17,0.114,0.363,0.196,0.577,0.244s0.43,0.073,0.648,0.073c0.384,0,0.681-0.053,0.891-0.159
									c0.209-0.105,0.362-0.229,0.458-0.37c0.096-0.141,0.151-0.281,0.164-0.422c0.013-0.141,0.02-0.246,0.02-0.317
									c0-0.105-0.011-0.209-0.033-0.31c-0.022-0.101-0.081-0.198-0.177-0.291c-0.096-0.092-0.238-0.18-0.426-0.264
									c-0.188-0.083-0.444-0.165-0.768-0.244l-0.708-0.159c-0.28-0.062-0.546-0.132-0.8-0.211c-0.253-0.08-0.477-0.189-0.668-0.33
									c-0.193-0.141-0.346-0.324-0.459-0.548c-0.114-0.225-0.17-0.513-0.17-0.865c0-0.37,0.075-0.68,0.225-0.931
									c0.149-0.25,0.347-0.449,0.594-0.594c0.246-0.146,0.519-0.249,0.818-0.311c0.299-0.061,0.603-0.092,0.911-0.092
									c0.572,0,1.032,0.071,1.379,0.211s0.618,0.314,0.812,0.521c0.193,0.207,0.326,0.427,0.396,0.66
									c0.07,0.233,0.114,0.442,0.132,0.627h-1.108c-0.009-0.097-0.033-0.213-0.073-0.35c-0.04-0.136-0.115-0.269-0.226-0.396
									c-0.11-0.127-0.267-0.235-0.471-0.323c-0.203-0.088-0.473-0.132-0.809-0.132c-0.035,0-0.128,0.005-0.278,0.013
									c-0.15,0.009-0.307,0.046-0.471,0.112s-0.312,0.172-0.444,0.317c-0.132,0.145-0.199,0.35-0.199,0.614
									c0,0.238,0.051,0.427,0.152,0.567c0.102,0.141,0.238,0.251,0.41,0.33c0.172,0.08,0.371,0.143,0.596,0.191
									c0.225,0.049,0.457,0.099,0.695,0.152c0.344,0.079,0.662,0.161,0.953,0.244c0.291,0.084,0.545,0.194,0.761,0.33
									c0.216,0.137,0.384,0.315,0.503,0.535c0.119,0.22,0.179,0.501,0.179,0.845c0,0.352-0.062,0.649-0.185,0.891
									s-0.277,0.444-0.462,0.607c-0.185,0.163-0.389,0.289-0.614,0.376c-0.224,0.088-0.44,0.154-0.647,0.198
									c-0.207,0.044-0.387,0.07-0.541,0.08c-0.154,0.008-0.257,0.013-0.31,0.013c-0.502,0-0.935-0.06-1.3-0.178
									c-0.365-0.119-0.671-0.282-0.917-0.489c-0.247-0.207-0.431-0.446-0.554-0.719c-0.124-0.272-0.189-0.563-0.198-0.871H332.786
									z"/>
								<path fill="#585A5E" d="M349.801,69.523c-0.044,0.334-0.132,0.695-0.264,1.083s-0.346,0.748-0.64,1.083
									c-0.295,0.334-0.685,0.614-1.168,0.838c-0.484,0.225-1.095,0.337-1.834,0.337c-0.687,0-1.303-0.108-1.848-0.324
									c-0.546-0.215-1.005-0.528-1.379-0.937s-0.662-0.906-0.865-1.492c-0.203-0.585-0.303-1.247-0.303-1.986
									c0-0.818,0.09-1.512,0.271-2.079c0.18-0.568,0.409-1.039,0.686-1.413c0.277-0.374,0.587-0.667,0.931-0.877
									c0.343-0.211,0.675-0.368,0.997-0.469s0.614-0.163,0.878-0.185c0.264-0.021,0.462-0.033,0.594-0.033
									c0.739,0,1.346,0.097,1.821,0.291c0.475,0.193,0.856,0.442,1.142,0.746c0.286,0.304,0.493,0.64,0.62,1.01
									s0.209,0.73,0.244,1.083h-1.241c-0.018-0.167-0.064-0.37-0.139-0.607c-0.075-0.237-0.205-0.466-0.389-0.687
									c-0.185-0.22-0.442-0.407-0.772-0.561c-0.33-0.154-0.759-0.231-1.287-0.231c-0.581,0-1.065,0.112-1.452,0.337
									c-0.387,0.224-0.698,0.521-0.931,0.891c-0.233,0.369-0.4,0.792-0.501,1.267c-0.102,0.475-0.152,0.963-0.152,1.465
									c0,0.537,0.07,1.034,0.211,1.491c0.141,0.458,0.348,0.854,0.621,1.188c0.272,0.334,0.601,0.596,0.983,0.786
									s0.82,0.284,1.313,0.284c0.37,0,0.71-0.057,1.023-0.171c0.312-0.114,0.583-0.275,0.812-0.482
									c0.229-0.207,0.411-0.449,0.547-0.726c0.137-0.277,0.213-0.583,0.231-0.917H349.801z"/>
								<path fill="#585A5E" d="M351.028,67.86c0-0.22,0.037-0.462,0.112-0.726c0.075-0.264,0.215-0.508,0.422-0.732
									c0.207-0.225,0.497-0.412,0.871-0.561s0.855-0.225,1.445-0.225c0.273,0,0.565,0.026,0.878,0.079
									c0.312,0.053,0.603,0.159,0.871,0.317c0.269,0.159,0.491,0.385,0.667,0.68c0.176,0.295,0.26,0.689,0.251,1.182l-0.066,3.102
									c0,0.132,0.002,0.249,0.006,0.35c0.004,0.102,0.029,0.185,0.073,0.251s0.114,0.117,0.211,0.152
									c0.097,0.035,0.233,0.048,0.41,0.04v0.818c-0.08,0.018-0.157,0.031-0.231,0.04s-0.174,0.013-0.297,0.013
									c-0.158,0-0.306-0.011-0.442-0.033c-0.137-0.022-0.255-0.066-0.356-0.132c-0.102-0.066-0.185-0.163-0.251-0.291
									c-0.066-0.127-0.117-0.301-0.152-0.521c-0.114,0.211-0.255,0.392-0.422,0.541c-0.167,0.15-0.352,0.273-0.554,0.37
									c-0.203,0.097-0.416,0.167-0.641,0.211c-0.224,0.043-0.451,0.066-0.68,0.066c-0.704,0-1.273-0.161-1.709-0.482
									c-0.436-0.321-0.653-0.833-0.653-1.538c0-0.291,0.044-0.552,0.132-0.786c0.088-0.233,0.255-0.44,0.501-0.621
									c0.246-0.18,0.581-0.33,1.003-0.449c0.422-0.119,0.973-0.209,1.65-0.271c0.246-0.018,0.453-0.035,0.62-0.053
									s0.301-0.055,0.403-0.112c0.101-0.057,0.173-0.143,0.218-0.257c0.044-0.114,0.066-0.282,0.066-0.501
									c0-0.079-0.009-0.193-0.026-0.343c-0.018-0.149-0.075-0.299-0.172-0.449c-0.097-0.149-0.246-0.279-0.449-0.39
									c-0.203-0.11-0.488-0.165-0.858-0.165c-0.105,0-0.257,0.009-0.456,0.026c-0.198,0.018-0.394,0.073-0.587,0.165
									c-0.193,0.093-0.361,0.233-0.501,0.422c-0.141,0.189-0.207,0.46-0.198,0.812H351.028z M355.384,69.153
									c-0.087,0.071-0.179,0.121-0.275,0.152c-0.096,0.031-0.201,0.055-0.314,0.073c-0.114,0.018-0.243,0.033-0.386,0.046
									c-0.145,0.013-0.308,0.033-0.491,0.06c-0.253,0.044-0.496,0.086-0.727,0.125s-0.435,0.101-0.609,0.185
									c-0.175,0.084-0.312,0.205-0.413,0.363c-0.101,0.158-0.151,0.37-0.151,0.633c0,0.396,0.12,0.702,0.36,0.917
									c0.24,0.216,0.548,0.324,0.923,0.324c0.227,0,0.456-0.033,0.688-0.099s0.445-0.185,0.642-0.356
									c0.196-0.172,0.36-0.407,0.491-0.706s0.209-0.682,0.236-1.148L355.384,69.153z"/>
								<path fill="#585A5E" d="M364.36,70.196c-0.018,0.203-0.068,0.453-0.152,0.752s-0.229,0.589-0.436,0.871
									s-0.497,0.524-0.871,0.726s-0.86,0.304-1.458,0.304c-0.115,0-0.273-0.009-0.475-0.026c-0.203-0.018-0.427-0.062-0.673-0.132
									c-0.247-0.07-0.495-0.183-0.746-0.336c-0.25-0.154-0.477-0.365-0.68-0.634c-0.203-0.268-0.37-0.609-0.501-1.023
									c-0.132-0.414-0.198-0.919-0.198-1.518c0-0.387,0.044-0.792,0.132-1.214c0.088-0.422,0.25-0.807,0.488-1.155
									s0.563-0.634,0.977-0.858c0.413-0.225,0.946-0.337,1.597-0.337c0.475,0,0.889,0.064,1.241,0.191
									c0.352,0.128,0.646,0.302,0.884,0.521c0.238,0.22,0.424,0.471,0.561,0.752c0.136,0.282,0.222,0.581,0.257,0.897h-1.109
									c-0.062-0.37-0.171-0.66-0.33-0.871c-0.158-0.211-0.33-0.365-0.515-0.462c-0.185-0.097-0.368-0.156-0.548-0.178
									s-0.319-0.033-0.416-0.033c-0.361,0-0.669,0.073-0.924,0.218c-0.255,0.146-0.462,0.341-0.62,0.587
									c-0.159,0.247-0.273,0.537-0.343,0.872c-0.071,0.334-0.105,0.691-0.105,1.069c0,0.378,0.04,0.739,0.119,1.083
									s0.2,0.647,0.363,0.911c0.163,0.264,0.376,0.473,0.64,0.627c0.264,0.154,0.581,0.231,0.951,0.231
									c0.325,0,0.601-0.062,0.825-0.185c0.225-0.123,0.407-0.275,0.548-0.456c0.141-0.18,0.242-0.378,0.304-0.594
									c0.062-0.215,0.097-0.416,0.105-0.601H364.36z"/>
								<path fill="#585A5E" d="M366.947,63.345v3.472c0.308-0.422,0.649-0.728,1.023-0.917c0.374-0.189,0.799-0.284,1.274-0.284
									c0.37,0,0.682,0.049,0.938,0.146c0.255,0.097,0.464,0.224,0.627,0.383c0.163,0.158,0.286,0.332,0.37,0.521
									c0.083,0.189,0.145,0.376,0.185,0.561c0.04,0.185,0.062,0.359,0.066,0.521c0.004,0.163,0.007,0.289,0.007,0.376v4.461
									h-1.162V68.48c0-0.194-0.004-0.409-0.013-0.647s-0.058-0.46-0.146-0.667c-0.088-0.207-0.227-0.381-0.416-0.521
									c-0.189-0.141-0.464-0.211-0.825-0.211c-0.158,0-0.348,0.026-0.567,0.08c-0.22,0.053-0.431,0.165-0.634,0.336
									c-0.203,0.171-0.374,0.422-0.515,0.752c-0.141,0.33-0.211,0.772-0.211,1.327v3.656h-1.162v-9.24H366.947z"/>
								<path fill="#585A5E" d="M379.276,70.645c-0.045,0.238-0.125,0.486-0.244,0.746c-0.119,0.26-0.291,0.498-0.515,0.713
									c-0.224,0.216-0.513,0.394-0.865,0.535s-0.788,0.211-1.307,0.211c-0.554,0-1.023-0.075-1.406-0.225s-0.7-0.341-0.95-0.574
									c-0.251-0.233-0.447-0.49-0.587-0.772c-0.141-0.282-0.245-0.555-0.311-0.818c-0.066-0.264-0.105-0.504-0.119-0.72
									c-0.013-0.215-0.02-0.376-0.02-0.481c0-0.15,0.009-0.346,0.027-0.587c0.017-0.242,0.061-0.497,0.132-0.766
									c0.07-0.269,0.176-0.539,0.317-0.812c0.141-0.272,0.332-0.519,0.574-0.739c0.242-0.22,0.543-0.398,0.904-0.535
									c0.361-0.136,0.801-0.205,1.32-0.205c0.668,0,1.203,0.117,1.604,0.35c0.4,0.233,0.708,0.526,0.924,0.877
									c0.215,0.352,0.36,0.737,0.436,1.155c0.074,0.418,0.121,0.808,0.139,1.168c0,0.053,0.002,0.108,0.006,0.165
									c0.005,0.058,0.008,0.112,0.008,0.165h-5.162c0,0.291,0.04,0.585,0.119,0.884c0.079,0.299,0.202,0.57,0.37,0.812
									c0.167,0.242,0.385,0.442,0.653,0.601s0.596,0.238,0.983,0.238c0.272,0,0.519-0.038,0.739-0.112
									c0.22-0.075,0.407-0.176,0.561-0.304c0.154-0.127,0.277-0.275,0.37-0.442c0.092-0.167,0.156-0.343,0.191-0.528H379.276z
									 M378.114,68.678c-0.009-0.22-0.04-0.462-0.093-0.726c-0.053-0.264-0.147-0.508-0.284-0.732
									c-0.137-0.225-0.323-0.411-0.561-0.561c-0.237-0.149-0.545-0.225-0.924-0.225c-0.422,0-0.77,0.077-1.043,0.231
									c-0.273,0.154-0.486,0.346-0.64,0.574c-0.154,0.229-0.257,0.473-0.31,0.733s-0.079,0.495-0.079,0.706H378.114z"/>
							</g>
						</g>
					</g>
				</g>
				<g>
					<g>
						<g>
							<g>
								<g>
									<path fill="#585A5E" d="M318.874,107.471c-0.742-0.826-1.113-1.892-1.113-3.199s0.371-2.373,1.113-3.199
										s1.673-1.239,2.793-1.239c0.952,0,1.731,0.254,2.338,0.763c0.607,0.509,0.994,1.202,1.162,2.079h-1.428
										c-0.373-1.017-1.064-1.526-2.072-1.526c-0.747,0-1.339,0.292-1.778,0.875c-0.439,0.583-0.658,1.333-0.658,2.247
										s0.219,1.664,0.658,2.247c0.438,0.583,1.031,0.875,1.778,0.875c1.008,0,1.699-0.513,2.072-1.54h1.428
										c-0.168,0.887-0.555,1.584-1.162,2.093s-1.386,0.763-2.338,0.763C320.546,108.71,319.616,108.297,318.874,107.471z"/>
									<path fill="#585A5E" d="M326.497,108.57v-9.1h1.4v3.472c0.42-0.485,0.98-0.728,1.68-0.728c0.69,0,1.229,0.21,1.617,0.63
										s0.581,0.98,0.581,1.68v4.046h-1.4v-3.808c0-0.401-0.098-0.714-0.294-0.938c-0.196-0.224-0.49-0.336-0.882-0.336
										c-0.308,0-0.583,0.091-0.826,0.273c-0.243,0.182-0.401,0.422-0.476,0.721v4.088H326.497z"/>
									<path fill="#585A5E" d="M337.262,106.638h1.288c-0.112,0.635-0.395,1.139-0.847,1.512c-0.453,0.374-1.043,0.56-1.771,0.56
										c-0.868,0-1.575-0.299-2.121-0.896s-0.819-1.377-0.819-2.338c0-0.933,0.275-1.71,0.826-2.331s1.246-0.931,2.086-0.931
										c0.858,0,1.523,0.278,1.995,0.833s0.707,1.3,0.707,2.233v0.504h-4.242c0.019,0.542,0.17,0.969,0.455,1.281
										c0.284,0.312,0.655,0.469,1.113,0.469C336.669,107.534,337.113,107.236,337.262,106.638z M335.918,103.39
										c-0.392,0-0.721,0.119-0.987,0.357c-0.266,0.238-0.441,0.577-0.525,1.015h2.814c-0.009-0.401-0.126-0.73-0.35-0.987
										S336.329,103.39,335.918,103.39z"/>
									<path fill="#585A5E" d="M340.314,107.807c-0.542-0.602-0.812-1.383-0.812-2.345s0.271-1.743,0.812-2.345
										c0.541-0.602,1.236-0.903,2.086-0.903c0.728,0,1.321,0.189,1.778,0.567c0.458,0.378,0.733,0.884,0.826,1.519h-1.4
										c-0.056-0.28-0.189-0.495-0.399-0.644c-0.21-0.149-0.474-0.224-0.791-0.224c-0.458,0-0.824,0.189-1.099,0.567
										c-0.275,0.378-0.413,0.866-0.413,1.463s0.138,1.085,0.413,1.463c0.275,0.378,0.642,0.567,1.099,0.567
										c0.317,0,0.581-0.075,0.791-0.224c0.21-0.149,0.343-0.364,0.399-0.644h1.4c-0.093,0.635-0.369,1.141-0.826,1.519
										c-0.457,0.378-1.05,0.567-1.778,0.567C341.55,108.71,340.855,108.409,340.314,107.807z"/>
									<path fill="#585A5E" d="M350.282,108.57l-2.058-2.646l-0.574,0.588v2.058h-1.4v-9.1h1.4v5.432l2.436-2.548h1.792
										l-2.646,2.688l2.744,3.528H350.282z"/>
									<path fill="#585A5E" d="M357.386,99.876c0.173,0.168,0.259,0.369,0.259,0.602s-0.086,0.434-0.259,0.602
										c-0.172,0.168-0.375,0.252-0.609,0.252s-0.436-0.084-0.609-0.252c-0.173-0.168-0.259-0.368-0.259-0.602
										s0.086-0.434,0.259-0.602s0.375-0.252,0.609-0.252S357.214,99.708,357.386,99.876z M357.478,102.354v6.216h-1.4v-6.216
										H357.478z"/>
									<path fill="#585A5E" d="M358.78,106.778h1.428c0.159,0.523,0.569,0.784,1.232,0.784c0.326,0,0.585-0.063,0.777-0.189
										c0.191-0.126,0.287-0.311,0.287-0.553c0-0.168-0.056-0.301-0.168-0.399c-0.112-0.098-0.299-0.18-0.56-0.245l-1.288-0.308
										c-1.027-0.243-1.54-0.812-1.54-1.708c0-0.56,0.222-1.024,0.665-1.393c0.443-0.368,1.005-0.553,1.687-0.553
										c0.709,0,1.274,0.161,1.694,0.483c0.42,0.322,0.686,0.772,0.798,1.351h-1.372c-0.14-0.457-0.518-0.686-1.134-0.686
										c-0.271,0-0.504,0.061-0.7,0.182c-0.196,0.121-0.294,0.299-0.294,0.532c0,0.271,0.215,0.462,0.644,0.574l1.316,0.308
										c1.064,0.252,1.596,0.84,1.596,1.764c0,0.607-0.227,1.09-0.679,1.449c-0.453,0.359-1.034,0.539-1.743,0.539
										c-0.728,0-1.328-0.173-1.799-0.518S358.873,107.375,358.78,106.778z"/>
								</g>
							</g>
						</g>
					</g>
				</g>
				<g>
					<g>
						<g>
							<g>
								<path fill="#585A5E" d="M179.072,164.143h-1.036v3.485h-1.456v-8.596h3.317c0.905,0,1.62,0.223,2.143,0.665
									c0.522,0.443,0.784,1.081,0.784,1.911c0,0.709-0.194,1.271-0.581,1.688c-0.388,0.415-0.927,0.679-1.617,0.791l2.492,3.541
									h-1.652L179.072,164.143z M178.036,160.292v2.633h1.834c0.476,0,0.847-0.119,1.113-0.357
									c0.266-0.238,0.398-0.558,0.398-0.959s-0.133-0.721-0.398-0.959c-0.267-0.238-0.638-0.357-1.113-0.357H178.036z"/>
								<path fill="#585A5E" d="M188.102,165.696h1.288c-0.112,0.635-0.395,1.139-0.848,1.512c-0.452,0.374-1.043,0.561-1.771,0.561
									c-0.868,0-1.575-0.299-2.121-0.896c-0.546-0.597-0.819-1.377-0.819-2.338c0-0.934,0.275-1.71,0.826-2.33
									c0.551-0.621,1.246-0.932,2.086-0.932c0.859,0,1.523,0.277,1.995,0.833s0.707,1.3,0.707,2.233v0.504h-4.242
									c0.019,0.541,0.171,0.969,0.455,1.281c0.285,0.312,0.656,0.469,1.113,0.469
									C187.509,166.593,187.952,166.294,188.102,165.696z M186.758,162.448c-0.393,0-0.722,0.119-0.987,0.357
									s-0.441,0.576-0.525,1.015h2.814c-0.01-0.401-0.126-0.729-0.351-0.987C187.485,162.577,187.168,162.448,186.758,162.448z"/>
								<path fill="#585A5E" d="M194.766,170.009v-2.912c-0.149,0.187-0.369,0.346-0.658,0.476c-0.29,0.131-0.598,0.196-0.924,0.196
									c-0.878,0-1.578-0.314-2.101-0.945c-0.522-0.63-0.784-1.397-0.784-2.303s0.262-1.673,0.784-2.303
									c0.522-0.631,1.223-0.945,2.101-0.945c0.326,0,0.634,0.065,0.924,0.195c0.289,0.131,0.509,0.29,0.658,0.477v-0.531h1.399
									v8.596H194.766z M194.766,165.696v-2.352c-0.122-0.242-0.304-0.441-0.547-0.596c-0.242-0.154-0.509-0.23-0.798-0.23
									c-0.531,0-0.952,0.187-1.26,0.561c-0.308,0.373-0.462,0.854-0.462,1.441s0.154,1.068,0.462,1.441
									c0.308,0.374,0.729,0.561,1.26,0.561c0.289,0,0.556-0.077,0.798-0.23C194.462,166.138,194.644,165.939,194.766,165.696z"/>
								<path fill="#585A5E" d="M203.067,161.413v6.215h-1.4v-0.588c-0.42,0.486-0.976,0.729-1.666,0.729s-1.228-0.21-1.609-0.631
									c-0.383-0.42-0.574-0.979-0.574-1.68v-4.045h1.399v3.807c0,0.85,0.388,1.275,1.162,1.275c0.309,0,0.581-0.092,0.819-0.273
									s0.395-0.422,0.469-0.721v-4.088H203.067z"/>
								<path fill="#585A5E" d="M208.64,165.696h1.288c-0.112,0.635-0.395,1.139-0.848,1.512c-0.452,0.374-1.043,0.561-1.771,0.561
									c-0.868,0-1.575-0.299-2.121-0.896c-0.546-0.597-0.819-1.377-0.819-2.338c0-0.934,0.275-1.71,0.826-2.33
									c0.551-0.621,1.246-0.932,2.086-0.932c0.859,0,1.523,0.277,1.995,0.833s0.707,1.3,0.707,2.233v0.504h-4.242
									c0.019,0.541,0.171,0.969,0.455,1.281c0.285,0.312,0.656,0.469,1.113,0.469C208.047,166.593,208.49,166.294,208.64,165.696z
									 M207.296,162.448c-0.393,0-0.722,0.119-0.987,0.357s-0.441,0.576-0.525,1.015h2.814c-0.01-0.401-0.126-0.729-0.351-0.987
									C208.023,162.577,207.706,162.448,207.296,162.448z"/>
								<path fill="#585A5E" d="M210.837,165.837h1.429c0.158,0.522,0.569,0.783,1.231,0.783c0.327,0,0.586-0.062,0.777-0.188
									s0.287-0.311,0.287-0.554c0-0.168-0.057-0.301-0.168-0.398c-0.112-0.098-0.299-0.18-0.561-0.245l-1.288-0.308
									c-1.026-0.243-1.54-0.812-1.54-1.709c0-0.56,0.222-1.023,0.665-1.393c0.443-0.368,1.006-0.553,1.688-0.553
									c0.709,0,1.273,0.161,1.694,0.482c0.42,0.322,0.686,0.773,0.798,1.352h-1.372c-0.141-0.457-0.519-0.686-1.134-0.686
									c-0.271,0-0.505,0.061-0.7,0.182c-0.196,0.121-0.294,0.299-0.294,0.531c0,0.271,0.214,0.463,0.644,0.574l1.316,0.309
									c1.063,0.252,1.596,0.84,1.596,1.764c0,0.607-0.227,1.09-0.679,1.449c-0.453,0.359-1.034,0.539-1.743,0.539
									c-0.729,0-1.328-0.173-1.799-0.518C211.213,166.905,210.931,166.434,210.837,165.837z"/>
								<path fill="#585A5E" d="M217.6,165.948v-3.374h-0.98v-1.161h0.98v-1.666h1.399v1.666h1.4v1.161h-1.4v3.22
									c0,0.486,0.247,0.729,0.742,0.729c0.299,0,0.564-0.084,0.798-0.252v1.273c-0.252,0.15-0.602,0.225-1.05,0.225
									c-0.579,0-1.038-0.154-1.379-0.462S217.6,166.546,217.6,165.948z"/>
							</g>
						</g>
						<g>
							<g>
								<path fill="#585A5E" d="M178.071,205.227h-1.036v3.485h-1.456v-8.596h3.317c0.905,0,1.62,0.223,2.143,0.665
									c0.522,0.443,0.784,1.081,0.784,1.911c0,0.709-0.194,1.271-0.581,1.688c-0.388,0.415-0.927,0.679-1.617,0.791l2.492,3.541
									h-1.652L178.071,205.227z M177.035,201.376v2.633h1.834c0.476,0,0.847-0.119,1.113-0.357
									c0.266-0.238,0.398-0.558,0.398-0.959s-0.133-0.721-0.398-0.959c-0.267-0.238-0.638-0.357-1.113-0.357H177.035z"/>
								<path fill="#585A5E" d="M187.101,206.78h1.288c-0.112,0.635-0.395,1.139-0.848,1.512c-0.452,0.374-1.043,0.561-1.771,0.561
									c-0.868,0-1.575-0.299-2.121-0.896c-0.546-0.597-0.819-1.377-0.819-2.338c0-0.934,0.275-1.71,0.826-2.33
									c0.551-0.621,1.246-0.932,2.086-0.932c0.859,0,1.523,0.277,1.995,0.833s0.707,1.3,0.707,2.233v0.504h-4.242
									c0.019,0.541,0.171,0.969,0.455,1.281c0.285,0.312,0.656,0.469,1.113,0.469C186.508,207.677,186.951,207.378,187.101,206.78
									z M185.757,203.532c-0.393,0-0.722,0.119-0.987,0.357s-0.441,0.576-0.525,1.015h2.814c-0.01-0.401-0.126-0.729-0.351-0.987
									C186.484,203.661,186.167,203.532,185.757,203.532z"/>
								<path fill="#585A5E" d="M189.298,206.921h1.429c0.158,0.522,0.569,0.783,1.231,0.783c0.327,0,0.586-0.062,0.777-0.188
									s0.287-0.311,0.287-0.554c0-0.168-0.057-0.301-0.168-0.398c-0.112-0.098-0.299-0.18-0.561-0.245l-1.288-0.308
									c-1.026-0.243-1.54-0.812-1.54-1.709c0-0.56,0.222-1.023,0.665-1.393c0.443-0.368,1.006-0.553,1.688-0.553
									c0.709,0,1.273,0.161,1.694,0.482c0.42,0.322,0.686,0.773,0.798,1.352h-1.372c-0.141-0.457-0.519-0.686-1.134-0.686
									c-0.271,0-0.505,0.061-0.7,0.182c-0.196,0.121-0.294,0.299-0.294,0.531c0,0.271,0.214,0.463,0.644,0.574l1.316,0.309
									c1.063,0.252,1.596,0.84,1.596,1.764c0,0.607-0.227,1.09-0.679,1.449c-0.453,0.359-1.034,0.539-1.743,0.539
									c-0.729,0-1.328-0.173-1.799-0.518C189.674,207.989,189.392,207.518,189.298,206.921z"/>
								<path fill="#585A5E" d="M197.138,208.181v2.912h-1.399v-8.596h1.399v0.531c0.149-0.187,0.369-0.346,0.658-0.477
									c0.289-0.13,0.598-0.195,0.924-0.195c0.878,0,1.577,0.314,2.101,0.945c0.522,0.63,0.784,1.397,0.784,2.303
									s-0.262,1.673-0.784,2.303c-0.523,0.631-1.223,0.945-2.101,0.945c-0.326,0-0.635-0.065-0.924-0.196
									C197.507,208.526,197.287,208.367,197.138,208.181z M197.138,204.429v2.352c0.122,0.243,0.304,0.441,0.547,0.596
									c0.242,0.153,0.508,0.23,0.798,0.23c0.531,0,0.952-0.187,1.26-0.561c0.308-0.373,0.462-0.854,0.462-1.441
									s-0.154-1.068-0.462-1.441c-0.308-0.374-0.729-0.561-1.26-0.561c-0.29,0-0.556,0.076-0.798,0.23
									C197.441,203.987,197.26,204.187,197.138,204.429z"/>
								<path fill="#585A5E" d="M207.562,203.267c0.546,0.606,0.818,1.386,0.818,2.338s-0.272,1.731-0.818,2.338
									c-0.547,0.607-1.258,0.91-2.136,0.91c-0.877,0-1.589-0.303-2.135-0.91c-0.546-0.606-0.819-1.386-0.819-2.338
									s0.273-1.731,0.819-2.338c0.546-0.607,1.258-0.91,2.135-0.91C206.304,202.356,207.015,202.659,207.562,203.267z
									 M206.574,207.081c0.271-0.377,0.406-0.869,0.406-1.477c0-0.606-0.136-1.1-0.406-1.477
									c-0.271-0.379-0.653-0.567-1.148-0.567c-0.494,0-0.877,0.188-1.147,0.567c-0.271,0.377-0.406,0.87-0.406,1.477
									c0,0.607,0.135,1.1,0.406,1.477c0.271,0.379,0.653,0.567,1.147,0.567C205.921,207.648,206.304,207.46,206.574,207.081z"/>
								<path fill="#585A5E" d="M209.683,208.712v-6.215h1.399v0.588c0.421-0.486,0.98-0.729,1.681-0.729
									c0.69,0,1.229,0.21,1.617,0.63c0.387,0.42,0.581,0.979,0.581,1.681v4.045h-1.4v-3.808c0-0.401-0.098-0.714-0.294-0.938
									c-0.196-0.224-0.49-0.336-0.882-0.336c-0.309,0-0.584,0.092-0.826,0.273c-0.243,0.182-0.401,0.422-0.477,0.721v4.088
									H209.683z"/>
								<path fill="#585A5E" d="M216.178,206.921h1.429c0.158,0.522,0.569,0.783,1.231,0.783c0.327,0,0.586-0.062,0.777-0.188
									s0.287-0.311,0.287-0.554c0-0.168-0.057-0.301-0.168-0.398c-0.112-0.098-0.299-0.18-0.561-0.245l-1.288-0.308
									c-1.026-0.243-1.54-0.812-1.54-1.709c0-0.56,0.222-1.023,0.665-1.393c0.443-0.368,1.006-0.553,1.688-0.553
									c0.709,0,1.273,0.161,1.694,0.482c0.42,0.322,0.686,0.773,0.798,1.352h-1.372c-0.141-0.457-0.519-0.686-1.134-0.686
									c-0.271,0-0.505,0.061-0.7,0.182c-0.196,0.121-0.294,0.299-0.294,0.531c0,0.271,0.214,0.463,0.644,0.574l1.316,0.309
									c1.063,0.252,1.596,0.84,1.596,1.764c0,0.607-0.227,1.09-0.679,1.449c-0.453,0.359-1.034,0.539-1.743,0.539
									c-0.729,0-1.328-0.173-1.799-0.518C216.554,207.989,216.271,207.518,216.178,206.921z"/>
								<path fill="#585A5E" d="M226.454,206.78h1.288c-0.112,0.635-0.395,1.139-0.848,1.512c-0.452,0.374-1.043,0.561-1.771,0.561
									c-0.868,0-1.575-0.299-2.121-0.896c-0.546-0.597-0.819-1.377-0.819-2.338c0-0.934,0.275-1.71,0.826-2.33
									c0.551-0.621,1.246-0.932,2.086-0.932c0.859,0,1.523,0.277,1.995,0.833s0.707,1.3,0.707,2.233v0.504h-4.242
									c0.019,0.541,0.171,0.969,0.455,1.281c0.285,0.312,0.656,0.469,1.113,0.469C225.861,207.677,226.305,207.378,226.454,206.78
									z M225.11,203.532c-0.393,0-0.722,0.119-0.987,0.357s-0.441,0.576-0.525,1.015h2.814c-0.01-0.401-0.126-0.729-0.351-0.987
									C225.838,203.661,225.521,203.532,225.11,203.532z"/>
							</g>
						</g>
						<g>
							<g>
								<path fill="#585A5E" d="M179.918,189.028h1.144v6.754h-1.144v-2.959h-3.399v2.959h-1.144v-6.754h1.144v2.783h3.399V189.028z
									"/>
								<path fill="#585A5E" d="M182.14,190.04v-1.012h5.632v1.012h-2.244v5.742h-1.144v-5.742H182.14z"/>
								<path fill="#585A5E" d="M188.432,190.04v-1.012h5.632v1.012h-2.244v5.742h-1.144v-5.742H188.432z"/>
								<path fill="#585A5E" d="M197.749,193.264h-1.464v2.519h-1.144v-6.754h2.607c0.711,0,1.273,0.184,1.688,0.551
									c0.414,0.366,0.621,0.891,0.621,1.572c0,0.676-0.207,1.195-0.621,1.562C199.022,193.081,198.46,193.264,197.749,193.264z
									 M198.926,191.151c0-0.344-0.103-0.619-0.309-0.824c-0.205-0.205-0.502-0.309-0.891-0.309h-1.441v2.256h1.441
									c0.381,0,0.677-0.104,0.886-0.309S198.926,191.489,198.926,191.151z"/>
							</g>
						</g>
						<g>
							<g>
								<path fill="#585A5E" d="M179.918,148.076h1.144v6.754h-1.144v-2.959h-3.399v2.959h-1.144v-6.754h1.144v2.782h3.399V148.076z
									"/>
								<path fill="#585A5E" d="M182.14,149.088v-1.012h5.632v1.012h-2.244v5.742h-1.144v-5.742H182.14z"/>
								<path fill="#585A5E" d="M188.432,149.088v-1.012h5.632v1.012h-2.244v5.742h-1.144v-5.742H188.432z"/>
								<path fill="#585A5E" d="M197.749,152.312h-1.464v2.519h-1.144v-6.754h2.607c0.711,0,1.273,0.183,1.688,0.55
									c0.414,0.367,0.621,0.891,0.621,1.573c0,0.675-0.207,1.195-0.621,1.562C199.022,152.128,198.46,152.312,197.749,152.312z
									 M198.926,150.199c0-0.345-0.103-0.62-0.309-0.825c-0.205-0.205-0.502-0.309-0.891-0.309h-1.441v2.256h1.441
									c0.381,0,0.677-0.104,0.886-0.309S198.926,150.536,198.926,150.199z"/>
							</g>
						</g>
						<g>
							<g>
								<path fill="#585A5E" d="M448.874,166.865c-0.541-0.603-0.812-1.384-0.812-2.345s0.271-1.743,0.812-2.346
									c0.541-0.602,1.236-0.902,2.086-0.902c0.729,0,1.32,0.189,1.779,0.566c0.457,0.379,0.732,0.885,0.824,1.52h-1.398
									c-0.057-0.279-0.189-0.494-0.4-0.645c-0.209-0.148-0.473-0.224-0.791-0.224c-0.457,0-0.822,0.188-1.098,0.567
									c-0.275,0.378-0.414,0.865-0.414,1.463s0.139,1.085,0.414,1.463s0.641,0.566,1.098,0.566c0.318,0,0.582-0.074,0.791-0.223
									c0.211-0.15,0.344-0.365,0.4-0.645h1.398c-0.092,0.635-0.367,1.141-0.824,1.52c-0.459,0.377-1.051,0.566-1.779,0.566
									C450.11,167.769,449.415,167.468,448.874,166.865z"/>
								<path fill="#585A5E" d="M459.598,167.628h-1.33v-0.35c-0.113,0.112-0.316,0.217-0.609,0.314
									c-0.295,0.099-0.605,0.147-0.932,0.147c-0.662,0-1.215-0.185-1.658-0.553s-0.666-0.86-0.666-1.478
									c0-0.578,0.232-1.057,0.693-1.435c0.463-0.378,1.039-0.567,1.729-0.567c0.271,0,0.547,0.04,0.826,0.119
									c0.281,0.08,0.486,0.166,0.617,0.26v-0.504c0-0.327-0.104-0.596-0.309-0.806s-0.5-0.315-0.883-0.315
									c-0.551,0-0.904,0.225-1.062,0.672h-1.346c0.094-0.541,0.367-0.986,0.82-1.336c0.453-0.351,0.992-0.525,1.617-0.525
									c0.783,0,1.395,0.203,1.834,0.609c0.438,0.406,0.658,0.963,0.658,1.672V167.628z M458.268,165.977v-0.519
									c-0.076-0.186-0.234-0.338-0.477-0.455c-0.242-0.116-0.51-0.174-0.799-0.174c-0.344,0-0.646,0.074-0.902,0.223
									c-0.256,0.15-0.385,0.369-0.385,0.658c0,0.29,0.125,0.512,0.377,0.666c0.252,0.153,0.557,0.23,0.91,0.23
									c0.289,0,0.557-0.059,0.799-0.175S458.192,166.163,458.268,165.977z"/>
								<path fill="#585A5E" d="M462.649,158.528v9.1h-1.398v-9.1H462.649z"/>
								<path fill="#585A5E" d="M465.786,158.528v9.1h-1.4v-9.1H465.786z"/>
								<path fill="#585A5E" d="M470.938,165.948v-3.374h-0.98v-1.161h0.98v-1.666h1.398v1.666h1.4v1.161h-1.4v3.22
									c0,0.486,0.248,0.729,0.742,0.729c0.299,0,0.564-0.084,0.799-0.252v1.273c-0.252,0.15-0.602,0.225-1.051,0.225
									c-0.578,0-1.037-0.154-1.379-0.462C471.108,166.999,470.938,166.546,470.938,165.948z"/>
								<path fill="#585A5E" d="M479.961,162.183c0.545,0.606,0.818,1.386,0.818,2.338s-0.273,1.731-0.818,2.338
									c-0.547,0.607-1.258,0.91-2.137,0.91c-0.877,0-1.588-0.303-2.135-0.91c-0.545-0.606-0.818-1.386-0.818-2.338
									s0.273-1.731,0.818-2.338c0.547-0.607,1.258-0.91,2.135-0.91C478.704,161.272,479.415,161.575,479.961,162.183z
									 M478.973,165.997c0.271-0.377,0.406-0.869,0.406-1.477c0-0.606-0.135-1.1-0.406-1.477c-0.27-0.379-0.652-0.567-1.148-0.567
									c-0.494,0-0.877,0.188-1.146,0.567c-0.271,0.377-0.406,0.87-0.406,1.477c0,0.607,0.135,1.1,0.406,1.477
									c0.27,0.379,0.652,0.567,1.146,0.567C478.321,166.564,478.704,166.376,478.973,165.997z"/>
								<path fill="#585A5E" d="M490.061,163.19c0.412,0.131,0.748,0.381,1.008,0.749c0.262,0.368,0.393,0.776,0.393,1.226
									c0,0.793-0.26,1.402-0.777,1.826c-0.518,0.425-1.229,0.637-2.135,0.637h-3.289v-8.596h3.01c0.914,0,1.629,0.201,2.141,0.602
									c0.514,0.402,0.771,0.98,0.771,1.736c0,0.448-0.105,0.836-0.316,1.162C490.657,162.859,490.389,163.079,490.061,163.19z
									 M486.674,162.645h1.582c1.016,0,1.525-0.396,1.525-1.19c0-0.774-0.51-1.162-1.525-1.162h-1.582V162.645z M486.674,163.849
									v2.52h1.848c0.484,0,0.857-0.111,1.119-0.336c0.262-0.224,0.393-0.531,0.393-0.924s-0.131-0.7-0.393-0.924
									c-0.262-0.225-0.635-0.336-1.119-0.336H486.674z"/>
								<path fill="#585A5E" d="M492.973,159.032h5.615v1.288h-4.188v2.269h3.795v1.273h-3.795v2.465h4.188v1.301h-5.615V159.032z"
									/>
							</g>
						</g>
						<g>
							<g>
								<path fill="#585A5E" d="M448.803,145.136c0.174,0.168,0.26,0.368,0.26,0.602s-0.086,0.434-0.26,0.602
									c-0.172,0.169-0.375,0.253-0.607,0.253c-0.234,0-0.438-0.084-0.609-0.253c-0.174-0.168-0.26-0.368-0.26-0.602
									s0.086-0.434,0.26-0.602c0.172-0.168,0.375-0.252,0.609-0.252C448.428,144.884,448.631,144.968,448.803,145.136z
									 M448.895,147.613v6.216h-1.4v-6.216H448.895z"/>
								<path fill="#585A5E" d="M450.196,152.037h1.43c0.158,0.523,0.568,0.784,1.23,0.784c0.328,0,0.586-0.062,0.777-0.188
									c0.191-0.127,0.287-0.311,0.287-0.554c0-0.168-0.057-0.301-0.168-0.398c-0.111-0.099-0.299-0.18-0.561-0.245l-1.287-0.309
									c-1.027-0.242-1.541-0.812-1.541-1.708c0-0.56,0.223-1.023,0.666-1.393c0.443-0.368,1.006-0.553,1.688-0.553
									c0.709,0,1.273,0.161,1.693,0.482c0.42,0.322,0.686,0.772,0.799,1.352h-1.373c-0.141-0.457-0.518-0.687-1.133-0.687
									c-0.271,0-0.506,0.062-0.701,0.183s-0.293,0.299-0.293,0.531c0,0.271,0.213,0.462,0.643,0.574l1.316,0.309
									c1.064,0.252,1.596,0.84,1.596,1.764c0,0.606-0.227,1.09-0.678,1.449c-0.453,0.359-1.035,0.539-1.744,0.539
									c-0.729,0-1.328-0.173-1.799-0.519C450.573,153.106,450.29,152.635,450.196,152.037z"/>
								<path fill="#585A5E" d="M459.731,153.829v-6.216h1.398v0.588c0.422-0.485,0.98-0.728,1.682-0.728
									c0.689,0,1.229,0.21,1.617,0.63c0.387,0.42,0.58,0.979,0.58,1.68v4.046h-1.4v-3.808c0-0.401-0.098-0.714-0.293-0.938
									c-0.197-0.224-0.49-0.336-0.883-0.336c-0.309,0-0.584,0.091-0.826,0.273c-0.242,0.182-0.4,0.422-0.477,0.721v4.088H459.731z
									"/>
								<path fill="#585A5E" d="M471.317,148.384c0.545,0.606,0.818,1.386,0.818,2.338s-0.273,1.731-0.818,2.338
									c-0.547,0.606-1.258,0.91-2.137,0.91c-0.877,0-1.588-0.304-2.135-0.91c-0.545-0.606-0.818-1.386-0.818-2.338
									s0.273-1.731,0.818-2.338c0.547-0.607,1.258-0.91,2.135-0.91C470.059,147.474,470.77,147.776,471.317,148.384z
									 M470.329,152.198c0.271-0.378,0.406-0.87,0.406-1.477s-0.135-1.1-0.406-1.478c-0.27-0.378-0.652-0.566-1.148-0.566
									c-0.494,0-0.877,0.188-1.146,0.566c-0.271,0.378-0.406,0.871-0.406,1.478s0.135,1.099,0.406,1.477
									c0.27,0.378,0.652,0.567,1.146,0.567C469.676,152.766,470.059,152.576,470.329,152.198z"/>
								<path fill="#585A5E" d="M473.758,152.149v-3.374h-0.98v-1.162h0.98v-1.666h1.4v1.666h1.4v1.162h-1.4v3.22
									c0,0.485,0.246,0.729,0.742,0.729c0.299,0,0.564-0.084,0.797-0.252v1.273c-0.252,0.149-0.602,0.225-1.049,0.225
									c-0.58,0-1.039-0.154-1.379-0.462C473.928,153.199,473.758,152.747,473.758,152.149z"/>
								<path fill="#585A5E" d="M481.598,153.066c-0.541-0.603-0.812-1.384-0.812-2.345c0-0.962,0.271-1.743,0.812-2.346
									c0.541-0.602,1.236-0.902,2.086-0.902c0.729,0,1.32,0.188,1.779,0.566c0.457,0.378,0.732,0.885,0.824,1.52h-1.398
									c-0.057-0.28-0.189-0.495-0.4-0.645c-0.209-0.148-0.473-0.224-0.791-0.224c-0.457,0-0.822,0.188-1.098,0.567
									c-0.275,0.378-0.414,0.865-0.414,1.463c0,0.597,0.139,1.085,0.414,1.463s0.641,0.566,1.098,0.566
									c0.318,0,0.582-0.074,0.791-0.224c0.211-0.149,0.344-0.364,0.4-0.644h1.398c-0.092,0.635-0.367,1.141-0.824,1.519
									c-0.459,0.378-1.051,0.567-1.779,0.567C482.834,153.97,482.139,153.668,481.598,153.066z"/>
								<path fill="#585A5E" d="M492.323,153.829h-1.33v-0.35c-0.113,0.112-0.316,0.217-0.609,0.314
									c-0.295,0.099-0.605,0.147-0.932,0.147c-0.662,0-1.215-0.185-1.658-0.553c-0.443-0.369-0.666-0.861-0.666-1.478
									c0-0.578,0.232-1.057,0.693-1.435c0.463-0.378,1.039-0.567,1.729-0.567c0.271,0,0.547,0.04,0.826,0.119
									c0.281,0.079,0.486,0.166,0.617,0.259v-0.504c0-0.326-0.104-0.595-0.309-0.805s-0.5-0.315-0.883-0.315
									c-0.551,0-0.904,0.225-1.062,0.672h-1.346c0.094-0.541,0.367-0.986,0.82-1.337c0.453-0.35,0.992-0.524,1.617-0.524
									c0.783,0,1.395,0.203,1.834,0.608c0.438,0.406,0.658,0.964,0.658,1.673V153.829z M490.993,152.178v-0.519
									c-0.076-0.187-0.234-0.338-0.477-0.455c-0.242-0.116-0.51-0.175-0.799-0.175c-0.344,0-0.646,0.075-0.902,0.224
									c-0.256,0.149-0.385,0.369-0.385,0.658c0,0.29,0.125,0.511,0.377,0.665s0.557,0.231,0.91,0.231
									c0.289,0,0.557-0.059,0.799-0.175C490.758,152.516,490.917,152.364,490.993,152.178z"/>
								<path fill="#585A5E" d="M494.352,153.066c-0.541-0.603-0.812-1.384-0.812-2.345c0-0.962,0.271-1.743,0.812-2.346
									c0.541-0.602,1.236-0.902,2.086-0.902c0.729,0,1.32,0.188,1.779,0.566c0.457,0.378,0.732,0.885,0.824,1.52h-1.398
									c-0.057-0.28-0.189-0.495-0.4-0.645c-0.209-0.148-0.473-0.224-0.791-0.224c-0.457,0-0.822,0.188-1.098,0.567
									c-0.275,0.378-0.414,0.865-0.414,1.463c0,0.597,0.139,1.085,0.414,1.463s0.641,0.566,1.098,0.566
									c0.318,0,0.582-0.074,0.791-0.224c0.211-0.149,0.344-0.364,0.4-0.644h1.398c-0.092,0.635-0.367,1.141-0.824,1.519
									c-0.459,0.378-1.051,0.567-1.779,0.567C495.588,153.97,494.893,153.668,494.352,153.066z"/>
								<path fill="#585A5E" d="M500.288,153.829v-9.1h1.4v3.472c0.42-0.485,0.98-0.728,1.68-0.728c0.691,0,1.23,0.21,1.617,0.63
									s0.582,0.979,0.582,1.68v4.046h-1.4v-3.808c0-0.401-0.098-0.714-0.295-0.938c-0.195-0.224-0.49-0.336-0.881-0.336
									c-0.309,0-0.584,0.091-0.826,0.273c-0.244,0.182-0.402,0.422-0.477,0.721v4.088H500.288z"/>
								<path fill="#585A5E" d="M511.053,151.897h1.289c-0.113,0.635-0.395,1.139-0.848,1.512c-0.453,0.374-1.043,0.561-1.771,0.561
									c-0.867,0-1.574-0.299-2.121-0.896c-0.545-0.597-0.818-1.377-0.818-2.338c0-0.934,0.275-1.71,0.826-2.331
									c0.551-0.62,1.246-0.931,2.086-0.931c0.859,0,1.523,0.277,1.994,0.833c0.473,0.555,0.707,1.3,0.707,2.232v0.504h-4.242
									c0.02,0.542,0.172,0.969,0.455,1.281c0.285,0.312,0.656,0.469,1.113,0.469C510.461,152.793,510.905,152.495,511.053,151.897
									z M509.709,148.649c-0.393,0-0.721,0.119-0.986,0.356c-0.266,0.238-0.441,0.577-0.525,1.016h2.814
									c-0.01-0.401-0.127-0.73-0.352-0.987C510.438,148.777,510.12,148.649,509.709,148.649z"/>
								<path fill="#585A5E" d="M517.717,153.829v-0.532c-0.148,0.188-0.369,0.346-0.658,0.477s-0.598,0.196-0.924,0.196
									c-0.887,0-1.59-0.311-2.107-0.932c-0.518-0.62-0.777-1.393-0.777-2.316c0-0.925,0.26-1.696,0.777-2.317
									c0.518-0.62,1.221-0.931,2.107-0.931c0.326,0,0.635,0.065,0.924,0.195c0.289,0.131,0.51,0.29,0.658,0.477v-3.416h1.4v9.1
									H517.717z M517.717,151.897v-2.353c-0.121-0.242-0.303-0.44-0.547-0.595c-0.242-0.154-0.508-0.23-0.797-0.23
									c-0.531,0-0.953,0.187-1.26,0.56c-0.309,0.373-0.463,0.854-0.463,1.442s0.154,1.068,0.463,1.441
									c0.307,0.374,0.729,0.561,1.26,0.561c0.289,0,0.555-0.077,0.797-0.231C517.415,152.338,517.596,152.141,517.717,151.897z"/>
								<path fill="#585A5E" d="M520.209,155.411l1.008-1.554c-0.232-0.037-0.422-0.136-0.566-0.294
									c-0.145-0.159-0.217-0.359-0.217-0.603c0-0.271,0.09-0.494,0.271-0.672c0.184-0.177,0.408-0.266,0.68-0.266
									c0.279,0,0.508,0.091,0.686,0.272c0.178,0.183,0.266,0.441,0.266,0.777c0,0.346-0.135,0.719-0.404,1.12l-0.812,1.218
									H520.209z"/>
							</g>
						</g>
						<g>
							<g>
								<path fill="#585A5E" d="M449.036,130.233v8.597h-1.457v-8.597H449.036z"/>
								<path fill="#585A5E" d="M454.286,129.759v1.231c-0.197-0.131-0.426-0.196-0.686-0.196c-0.281,0-0.502,0.082-0.666,0.245
									s-0.244,0.399-0.244,0.707v0.868h1.357v1.162h-1.357v5.054h-1.373v-5.054h-1.078v-1.162h1.078v-0.967
									c0-0.644,0.191-1.147,0.574-1.512c0.383-0.363,0.873-0.546,1.471-0.546C453.725,129.59,454.034,129.646,454.286,129.759z"/>
								<path fill="#585A5E" d="M461.858,132.586v1.442c-0.195-0.141-0.471-0.211-0.826-0.211c-0.299,0-0.564,0.087-0.797,0.26
									c-0.234,0.173-0.383,0.418-0.449,0.734v4.019h-1.398v-6.216h1.398v0.645c0.123-0.234,0.309-0.423,0.561-0.568
									c0.252-0.145,0.527-0.217,0.826-0.217C461.499,132.474,461.727,132.512,461.858,132.586z"/>
								<path fill="#585A5E" d="M466.983,136.897h1.287c-0.111,0.635-0.395,1.14-0.848,1.513c-0.451,0.374-1.043,0.56-1.77,0.56
									c-0.869,0-1.576-0.299-2.121-0.896c-0.547-0.597-0.82-1.377-0.82-2.339c0-0.933,0.275-1.709,0.826-2.33
									s1.246-0.932,2.086-0.932c0.859,0,1.523,0.278,1.996,0.834c0.471,0.555,0.707,1.299,0.707,2.232v0.504h-4.242
									c0.018,0.541,0.17,0.969,0.455,1.281s0.656,0.469,1.113,0.469C466.389,137.794,466.833,137.495,466.983,136.897z
									 M465.639,133.649c-0.393,0-0.723,0.119-0.988,0.357s-0.441,0.576-0.525,1.016h2.814c-0.01-0.401-0.125-0.73-0.35-0.987
									S466.049,133.649,465.639,133.649z"/>
								<path fill="#585A5E" d="M469.18,137.038h1.428c0.158,0.523,0.57,0.784,1.232,0.784c0.326,0,0.586-0.063,0.777-0.188
									c0.191-0.127,0.287-0.311,0.287-0.554c0-0.168-0.057-0.301-0.168-0.399c-0.113-0.098-0.299-0.18-0.561-0.244l-1.289-0.309
									c-1.025-0.242-1.539-0.812-1.539-1.708c0-0.56,0.221-1.024,0.664-1.394c0.443-0.367,1.006-0.553,1.688-0.553
									c0.709,0,1.273,0.162,1.695,0.483c0.42,0.322,0.686,0.772,0.797,1.351h-1.371c-0.141-0.457-0.52-0.686-1.135-0.686
									c-0.271,0-0.504,0.061-0.699,0.182c-0.197,0.121-0.295,0.299-0.295,0.532c0,0.271,0.215,0.462,0.645,0.574l1.316,0.308
									c1.062,0.252,1.596,0.84,1.596,1.764c0,0.607-0.227,1.09-0.68,1.449s-1.033,0.539-1.742,0.539
									c-0.729,0-1.328-0.172-1.799-0.518C469.555,138.106,469.274,137.636,469.18,137.038z"/>
								<path fill="#585A5E" d="M477.02,138.298v2.912h-1.4v-8.596h1.4v0.531c0.148-0.186,0.369-0.345,0.658-0.476
									c0.289-0.13,0.598-0.196,0.924-0.196c0.877,0,1.576,0.315,2.1,0.945c0.523,0.631,0.785,1.398,0.785,2.303
									c0,0.906-0.262,1.674-0.785,2.303c-0.523,0.631-1.223,0.945-2.1,0.945c-0.326,0-0.635-0.064-0.924-0.195
									S477.168,138.485,477.02,138.298z M477.02,134.546v2.352c0.121,0.244,0.303,0.441,0.547,0.596
									c0.242,0.154,0.508,0.23,0.797,0.23c0.531,0,0.953-0.186,1.26-0.56c0.309-0.373,0.463-0.854,0.463-1.442
									s-0.154-1.068-0.463-1.441c-0.307-0.373-0.729-0.561-1.26-0.561c-0.289,0-0.555,0.077-0.797,0.231
									C477.323,134.104,477.141,134.304,477.02,134.546z"/>
								<path fill="#585A5E" d="M487.444,133.384c0.545,0.607,0.818,1.387,0.818,2.338c0,0.953-0.273,1.732-0.818,2.338
									c-0.547,0.607-1.258,0.91-2.137,0.91c-0.877,0-1.588-0.303-2.135-0.91c-0.545-0.605-0.818-1.385-0.818-2.338
									c0-0.951,0.273-1.73,0.818-2.338c0.547-0.606,1.258-0.91,2.135-0.91C486.186,132.474,486.897,132.777,487.444,133.384z
									 M486.456,137.199c0.271-0.378,0.406-0.87,0.406-1.478c0-0.605-0.135-1.099-0.406-1.477
									c-0.27-0.378-0.652-0.566-1.148-0.566c-0.494,0-0.877,0.188-1.146,0.566c-0.271,0.378-0.406,0.871-0.406,1.477
									c0,0.607,0.135,1.1,0.406,1.478c0.27,0.378,0.652,0.567,1.146,0.567C485.803,137.767,486.186,137.577,486.456,137.199z"/>
								<path fill="#585A5E" d="M489.565,138.83v-6.216h1.398v0.588c0.422-0.485,0.98-0.729,1.682-0.729
									c0.689,0,1.229,0.211,1.617,0.631c0.387,0.42,0.58,0.979,0.58,1.68v4.046h-1.4v-3.808c0-0.401-0.098-0.715-0.293-0.938
									c-0.197-0.224-0.49-0.336-0.883-0.336c-0.309,0-0.584,0.091-0.826,0.272c-0.242,0.183-0.4,0.423-0.477,0.722v4.088H489.565z
									"/>
								<path fill="#585A5E" d="M496.059,137.038h1.43c0.158,0.523,0.568,0.784,1.23,0.784c0.328,0,0.586-0.063,0.777-0.188
									c0.191-0.127,0.287-0.311,0.287-0.554c0-0.168-0.057-0.301-0.168-0.399c-0.111-0.098-0.299-0.18-0.561-0.244l-1.287-0.309
									c-1.027-0.242-1.541-0.812-1.541-1.708c0-0.56,0.223-1.024,0.666-1.394c0.443-0.367,1.006-0.553,1.688-0.553
									c0.709,0,1.273,0.162,1.693,0.483c0.42,0.322,0.686,0.772,0.799,1.351H499.7c-0.141-0.457-0.518-0.686-1.133-0.686
									c-0.271,0-0.506,0.061-0.701,0.182s-0.293,0.299-0.293,0.532c0,0.271,0.213,0.462,0.643,0.574l1.316,0.308
									c1.064,0.252,1.596,0.84,1.596,1.764c0,0.607-0.227,1.09-0.678,1.449c-0.453,0.359-1.035,0.539-1.744,0.539
									c-0.729,0-1.328-0.172-1.799-0.518S496.153,137.636,496.059,137.038z"/>
								<path fill="#585A5E" d="M506.336,136.897h1.287c-0.111,0.635-0.395,1.14-0.848,1.513c-0.451,0.374-1.043,0.56-1.77,0.56
									c-0.869,0-1.576-0.299-2.121-0.896c-0.547-0.597-0.82-1.377-0.82-2.339c0-0.933,0.275-1.709,0.826-2.33
									s1.246-0.932,2.086-0.932c0.859,0,1.523,0.278,1.996,0.834c0.471,0.555,0.707,1.299,0.707,2.232v0.504h-4.242
									c0.018,0.541,0.17,0.969,0.455,1.281s0.656,0.469,1.113,0.469C505.743,137.794,506.186,137.495,506.336,136.897z
									 M504.993,133.649c-0.393,0-0.723,0.119-0.988,0.357s-0.441,0.576-0.525,1.016h2.814c-0.01-0.401-0.125-0.73-0.35-0.987
									S505.403,133.649,504.993,133.649z"/>
							</g>
						</g>
					</g>
				</g>
				<g>
					<g>
						<g>
							<g>
								
									<line fill="none" stroke="#585A5E" stroke-width="1.1" stroke-miterlimit="10" x1="160.573" y1="172.71" x2="239.598" y2="172.71"/>
								<g>
									<polygon fill="#585A5E" points="238.779,175.507 243.624,172.71 238.779,169.913 									"/>
								</g>
							</g>
						</g>
						<g>
							<g>
								
									<line fill="none" stroke="#585A5E" stroke-width="1.1" stroke-miterlimit="10" x1="243.624" y1="182.21" x2="164.599" y2="182.21"/>
								<g>
									<polygon fill="#585A5E" points="165.417,179.413 160.573,182.21 165.417,185.007 									"/>
								</g>
							</g>
						</g>
					</g>
				</g>
				<g>
					<g>
						<g>
							<g>
								
									<line fill="none" stroke="#585A5E" stroke-width="1.1" stroke-miterlimit="10" x1="384.869" y1="85.568" x2="384.869" y2="144.573"/>
								<g>
									<polygon fill="#585A5E" points="382.071,143.755 384.869,148.6 387.667,143.755 									"/>
								</g>
							</g>
						</g>
						<g>
							<g>
								
									<line fill="none" stroke="#585A5E" stroke-width="1.1" stroke-miterlimit="10" x1="293.869" y1="148.6" x2="293.869" y2="89.595"/>
								<g>
									<polygon fill="#585A5E" points="296.666,90.413 293.869,85.568 291.071,90.413 									"/>
								</g>
							</g>
						</g>
					</g>
				</g>
				<rect x="536.557" y="148.6" fill="#989A9B" width="76.327" height="55.461"/>
				<g>
					<g>
						<g>
							<g>
								<path fill="#FFFFFF" d="M555.048,172.334c0.563,0,1.022,0.073,1.38,0.218c0.355,0.146,0.635,0.33,0.838,0.555
									c0.202,0.225,0.344,0.475,0.422,0.752c0.08,0.277,0.119,0.553,0.119,0.825c0,0.247-0.039,0.481-0.117,0.706
									s-0.187,0.425-0.324,0.602c-0.14,0.176-0.3,0.322-0.482,0.441c-0.182,0.119-0.381,0.196-0.598,0.231v0.04
									c0.191,0.035,0.398,0.096,0.619,0.184c0.223,0.088,0.429,0.221,0.62,0.396c0.19,0.176,0.353,0.402,0.482,0.68
									s0.196,0.623,0.196,1.036c0,0.335-0.049,0.655-0.146,0.964s-0.271,0.58-0.521,0.818s-0.587,0.43-1.01,0.574
									s-0.964,0.218-1.624,0.218h-3.906v-9.24H555.048z M552.237,176.255h2.51c0.346,0,0.633-0.04,0.863-0.119
									s0.416-0.185,0.559-0.316c0.141-0.133,0.243-0.284,0.305-0.455c0.062-0.172,0.094-0.355,0.094-0.549
									c0-0.132-0.021-0.281-0.061-0.448c-0.039-0.167-0.121-0.323-0.246-0.469c-0.123-0.146-0.303-0.269-0.537-0.37
									c-0.234-0.101-0.547-0.151-0.937-0.151h-2.55V176.255z M552.237,180.531h2.588c0.213,0,0.445-0.015,0.697-0.046
									s0.484-0.102,0.697-0.211c0.212-0.11,0.389-0.273,0.531-0.488c0.141-0.216,0.212-0.514,0.212-0.892
									c0-0.299-0.051-0.55-0.153-0.753c-0.102-0.201-0.245-0.364-0.431-0.488c-0.187-0.123-0.409-0.213-0.671-0.27
									c-0.261-0.058-0.555-0.086-0.883-0.086h-2.588V180.531z"/>
								<path fill="#FFFFFF" d="M559.695,176.849c0-0.22,0.037-0.462,0.112-0.727c0.074-0.264,0.215-0.508,0.422-0.732
									s0.498-0.411,0.871-0.561c0.375-0.149,0.855-0.225,1.445-0.225c0.273,0,0.566,0.026,0.879,0.079
									c0.312,0.054,0.602,0.159,0.871,0.317c0.268,0.158,0.49,0.385,0.666,0.68s0.26,0.688,0.251,1.182l-0.065,3.102
									c0,0.132,0.002,0.248,0.006,0.35s0.029,0.186,0.072,0.251c0.045,0.065,0.115,0.116,0.211,0.151
									c0.098,0.035,0.234,0.049,0.41,0.04v0.818c-0.08,0.018-0.156,0.03-0.231,0.04c-0.075,0.008-0.174,0.013-0.297,0.013
									c-0.158,0-0.306-0.011-0.442-0.032c-0.137-0.022-0.255-0.066-0.355-0.133c-0.102-0.066-0.186-0.162-0.252-0.291
									c-0.065-0.127-0.116-0.301-0.151-0.521c-0.114,0.211-0.255,0.392-0.423,0.541c-0.167,0.149-0.352,0.272-0.554,0.37
									c-0.202,0.096-0.416,0.166-0.641,0.211c-0.224,0.043-0.45,0.066-0.68,0.066c-0.704,0-1.273-0.161-1.71-0.482
									c-0.436-0.321-0.652-0.834-0.652-1.537c0-0.291,0.043-0.553,0.132-0.786c0.088-0.233,0.255-0.44,0.501-0.62
									c0.246-0.181,0.581-0.33,1.004-0.449c0.422-0.119,0.973-0.209,1.65-0.271c0.246-0.018,0.453-0.035,0.619-0.053
									c0.168-0.018,0.302-0.055,0.403-0.112c0.101-0.057,0.173-0.143,0.218-0.258c0.044-0.113,0.066-0.281,0.066-0.501
									c0-0.079-0.01-0.193-0.027-0.343c-0.018-0.15-0.074-0.3-0.172-0.449c-0.096-0.149-0.246-0.279-0.448-0.39
									s-0.488-0.165-0.858-0.165c-0.105,0-0.257,0.01-0.455,0.026c-0.197,0.019-0.394,0.073-0.588,0.165
									c-0.193,0.093-0.36,0.233-0.501,0.422c-0.141,0.189-0.206,0.461-0.198,0.812H559.695z M564.051,178.142
									c-0.088,0.071-0.18,0.121-0.275,0.152s-0.201,0.055-0.314,0.072s-0.242,0.033-0.387,0.047
									c-0.145,0.013-0.308,0.033-0.49,0.059c-0.254,0.045-0.496,0.086-0.728,0.126s-0.435,0.101-0.608,0.185
									c-0.176,0.084-0.312,0.205-0.413,0.363s-0.151,0.369-0.151,0.633c0,0.396,0.121,0.703,0.361,0.918
									c0.24,0.216,0.547,0.324,0.923,0.324c0.228,0,0.456-0.033,0.688-0.1s0.445-0.186,0.642-0.356
									c0.196-0.172,0.36-0.407,0.491-0.706s0.21-0.682,0.235-1.148L564.051,178.142z"/>
								<path fill="#FFFFFF" d="M573.026,179.185c-0.018,0.203-0.068,0.453-0.151,0.753s-0.229,0.589-0.436,0.871
									s-0.497,0.524-0.871,0.726c-0.374,0.203-0.86,0.305-1.458,0.305c-0.115,0-0.273-0.01-0.476-0.027s-0.427-0.062-0.673-0.132
									c-0.247-0.07-0.496-0.183-0.746-0.337c-0.251-0.153-0.478-0.365-0.68-0.633c-0.203-0.269-0.37-0.609-0.502-1.023
									s-0.198-0.92-0.198-1.518c0-0.388,0.044-0.793,0.132-1.215s0.251-0.807,0.488-1.154c0.238-0.348,0.563-0.635,0.978-0.858
									c0.413-0.225,0.946-0.337,1.597-0.337c0.476,0,0.889,0.064,1.241,0.191c0.352,0.128,0.646,0.302,0.884,0.521
									c0.238,0.221,0.425,0.471,0.562,0.752c0.136,0.282,0.222,0.581,0.257,0.898h-1.108c-0.062-0.37-0.171-0.66-0.33-0.871
									c-0.158-0.211-0.329-0.365-0.515-0.463c-0.185-0.096-0.367-0.156-0.548-0.178s-0.319-0.033-0.415-0.033
									c-0.361,0-0.67,0.072-0.925,0.218s-0.462,0.341-0.62,0.587c-0.158,0.247-0.273,0.537-0.344,0.872s-0.105,0.69-0.105,1.069
									c0,0.378,0.04,0.738,0.119,1.082s0.2,0.646,0.363,0.91c0.162,0.265,0.376,0.474,0.64,0.628
									c0.265,0.153,0.581,0.231,0.95,0.231c0.326,0,0.602-0.062,0.825-0.186c0.225-0.123,0.407-0.275,0.548-0.455
									c0.141-0.181,0.242-0.379,0.304-0.594c0.062-0.216,0.097-0.416,0.105-0.602H573.026z"/>
								<path fill="#FFFFFF" d="M578.808,174.868h1.386l-2.666,2.588l2.904,4.118h-1.32l-2.363-3.405l-1.135,1.121v2.284h-1.162
									v-9.24h1.162v5.729L578.808,174.868z"/>
								<path fill="#FFFFFF" d="M587.295,179.634c-0.044,0.238-0.125,0.486-0.244,0.746s-0.29,0.497-0.515,0.713
									c-0.224,0.215-0.513,0.394-0.864,0.534c-0.353,0.141-0.788,0.212-1.307,0.212c-0.555,0-1.023-0.076-1.406-0.225
									c-0.383-0.15-0.699-0.342-0.95-0.574c-0.251-0.233-0.446-0.49-0.587-0.772c-0.142-0.282-0.245-0.555-0.311-0.818
									c-0.066-0.265-0.105-0.504-0.119-0.72c-0.014-0.215-0.02-0.376-0.02-0.481c0-0.149,0.008-0.346,0.026-0.587
									c0.017-0.242,0.062-0.498,0.132-0.766c0.07-0.27,0.176-0.539,0.316-0.812c0.141-0.272,0.332-0.52,0.574-0.739
									s0.543-0.397,0.904-0.534s0.801-0.205,1.32-0.205c0.668,0,1.203,0.117,1.604,0.35c0.4,0.233,0.709,0.526,0.924,0.878
									c0.216,0.353,0.361,0.737,0.436,1.155c0.075,0.418,0.121,0.808,0.139,1.168c0,0.053,0.002,0.107,0.007,0.165
									s0.007,0.112,0.007,0.165h-5.161c0,0.291,0.04,0.586,0.118,0.885c0.08,0.299,0.203,0.569,0.37,0.812
									s0.385,0.442,0.653,0.601s0.596,0.238,0.983,0.238c0.272,0,0.519-0.038,0.739-0.113c0.22-0.074,0.406-0.176,0.561-0.303
									c0.154-0.128,0.277-0.275,0.37-0.443c0.093-0.166,0.155-0.342,0.191-0.527H587.295z M586.134,177.667
									c-0.009-0.22-0.04-0.462-0.093-0.727c-0.053-0.264-0.147-0.508-0.283-0.732c-0.137-0.225-0.324-0.41-0.562-0.561
									c-0.237-0.149-0.546-0.225-0.924-0.225c-0.423,0-0.771,0.077-1.043,0.23c-0.272,0.154-0.486,0.346-0.64,0.574
									c-0.154,0.229-0.258,0.474-0.311,0.733s-0.079,0.495-0.079,0.706H586.134z"/>
								<path fill="#FFFFFF" d="M590.042,174.868v0.938c0.229-0.334,0.536-0.618,0.924-0.852c0.387-0.232,0.845-0.35,1.373-0.35
									c0.439,0,0.803,0.068,1.088,0.205c0.287,0.137,0.512,0.318,0.674,0.547c0.162,0.229,0.277,0.496,0.344,0.799
									c0.065,0.304,0.099,0.623,0.099,0.957v4.462h-1.161v-4.104c0-0.177-0.008-0.383-0.021-0.621s-0.062-0.462-0.146-0.674
									c-0.084-0.211-0.222-0.389-0.416-0.534c-0.193-0.146-0.471-0.218-0.831-0.218c-0.158,0-0.348,0.026-0.567,0.08
									c-0.221,0.053-0.432,0.164-0.634,0.336s-0.374,0.422-0.515,0.752s-0.211,0.772-0.211,1.327v3.656h-1.162v-6.706H590.042z"/>
								<path fill="#FFFFFF" d="M602.45,172.334v9.24h-1.083v-0.924h-0.04c-0.053,0.105-0.131,0.229-0.237,0.37
									c-0.105,0.141-0.247,0.27-0.423,0.389s-0.391,0.22-0.646,0.304c-0.255,0.083-0.559,0.126-0.91,0.126
									c-0.493,0-0.929-0.089-1.307-0.265c-0.379-0.176-0.695-0.425-0.951-0.745c-0.255-0.322-0.451-0.705-0.588-1.148
									c-0.136-0.445-0.204-0.936-0.204-1.473c0-0.352,0.035-0.736,0.106-1.154c0.07-0.418,0.215-0.811,0.436-1.176
									c0.219-0.365,0.525-0.668,0.917-0.91s0.913-0.363,1.563-0.363c0.449,0,0.861,0.075,1.234,0.225
									c0.375,0.149,0.697,0.453,0.971,0.91v-3.405H602.45z M597.288,178.208c0,0.634,0.077,1.138,0.231,1.512
									c0.153,0.374,0.339,0.656,0.554,0.845c0.216,0.189,0.443,0.312,0.68,0.37c0.238,0.057,0.44,0.086,0.607,0.086
									c0.256,0,0.504-0.051,0.746-0.152s0.455-0.264,0.641-0.488c0.185-0.225,0.334-0.518,0.449-0.878
									c0.113-0.36,0.171-0.801,0.171-1.32c0-0.483-0.056-0.899-0.165-1.247c-0.11-0.348-0.262-0.634-0.455-0.857
									c-0.193-0.225-0.416-0.391-0.667-0.496s-0.513-0.158-0.785-0.158c-0.282,0-0.544,0.053-0.786,0.158
									s-0.453,0.271-0.633,0.496c-0.181,0.224-0.324,0.512-0.43,0.863C597.34,177.293,597.288,177.716,597.288,178.208z"/>
							</g>
						</g>
					</g>
				</g>
				<g>
					<g>
						<g>
							<g>
								
									<line fill="none" stroke="#585A5E" stroke-width="1.1" stroke-miterlimit="10" x1="436.383" y1="172.71" x2="531.423" y2="172.71"/>
								<g>
									<polygon fill="#585A5E" points="530.605,175.507 535.45,172.71 530.605,169.913 									"/>
								</g>
							</g>
						</g>
						<g>
							<g>
								
									<line fill="none" stroke="#585A5E" stroke-width="1.1" stroke-miterlimit="10" x1="535.45" y1="182.21" x2="440.41" y2="182.21"/>
								<g>
									<polygon fill="#585A5E" points="441.228,179.413 436.383,182.21 441.228,185.007 									"/>
								</g>
							</g>
						</g>
					</g>
				</g>
			</g>
		</g>
	</g>
	<g>
		<g>
			<path fill="#585A5E" d="M319.86,115.352v1.442c-0.196-0.141-0.471-0.21-0.826-0.21c-0.299,0-0.565,0.086-0.798,0.259
				s-0.383,0.418-0.448,0.735v4.018h-1.4v-6.216h1.4v0.644c0.121-0.233,0.308-0.422,0.56-0.566s0.527-0.218,0.826-0.218
				C319.501,115.24,319.729,115.278,319.86,115.352z"/>
			<path fill="#585A5E" d="M324.984,119.665h1.288c-0.112,0.635-0.395,1.139-0.847,1.512s-1.043,0.56-1.771,0.56
				c-0.868,0-1.575-0.298-2.121-0.896s-0.819-1.377-0.819-2.338c0-0.934,0.275-1.71,0.826-2.331s1.246-0.932,2.086-0.932
				c0.858,0,1.523,0.278,1.995,0.833c0.471,0.556,0.707,1.3,0.707,2.233v0.504h-4.242c0.019,0.542,0.17,0.969,0.455,1.281
				c0.284,0.312,0.655,0.469,1.113,0.469C324.392,120.56,324.835,120.261,324.984,119.665z M323.64,116.417
				c-0.392,0-0.721,0.119-0.987,0.356c-0.266,0.238-0.441,0.576-0.525,1.016h2.814c-0.009-0.401-0.126-0.73-0.35-0.987
				S324.051,116.417,323.64,116.417z"/>
			<path fill="#585A5E" d="M327.183,119.804h1.428c0.159,0.522,0.569,0.784,1.232,0.784c0.326,0,0.585-0.063,0.777-0.189
				c0.191-0.126,0.287-0.31,0.287-0.553c0-0.168-0.056-0.301-0.168-0.399c-0.112-0.098-0.299-0.179-0.56-0.244l-1.288-0.309
				c-1.027-0.242-1.54-0.812-1.54-1.708c0-0.56,0.222-1.024,0.665-1.393c0.443-0.369,1.005-0.554,1.687-0.554
				c0.709,0,1.274,0.161,1.694,0.483s0.686,0.772,0.798,1.351h-1.372c-0.14-0.457-0.518-0.686-1.134-0.686
				c-0.271,0-0.504,0.061-0.7,0.182c-0.196,0.122-0.294,0.299-0.294,0.532c0,0.271,0.215,0.462,0.644,0.574l1.316,0.308
				c1.064,0.252,1.596,0.84,1.596,1.765c0,0.606-0.227,1.09-0.679,1.448c-0.453,0.359-1.034,0.539-1.743,0.539
				c-0.728,0-1.328-0.172-1.799-0.518S327.276,120.402,327.183,119.804z"/>
			<path fill="#585A5E" d="M335.022,121.064v2.912h-1.4v-8.596h1.4v0.532c0.149-0.187,0.369-0.346,0.658-0.477
				c0.29-0.131,0.597-0.196,0.924-0.196c0.877,0,1.577,0.315,2.1,0.945c0.522,0.63,0.784,1.397,0.784,2.303
				c0,0.906-0.261,1.674-0.784,2.304c-0.523,0.63-1.223,0.944-2.1,0.944c-0.327,0-0.635-0.065-0.924-0.195
				C335.391,121.41,335.171,121.251,335.022,121.064z M335.022,117.312v2.353c0.121,0.242,0.303,0.44,0.546,0.595
				s0.509,0.23,0.798,0.23c0.532,0,0.952-0.187,1.26-0.56s0.462-0.854,0.462-1.442c0-0.588-0.154-1.068-0.462-1.441
				s-0.728-0.561-1.26-0.561c-0.289,0-0.555,0.077-0.798,0.231S335.143,117.07,335.022,117.312z"/>
			<path fill="#585A5E" d="M345.445,116.15c0.546,0.607,0.819,1.387,0.819,2.338c0,0.952-0.273,1.731-0.819,2.339
				c-0.546,0.606-1.258,0.909-2.135,0.909c-0.877,0-1.589-0.303-2.135-0.909c-0.546-0.607-0.819-1.387-0.819-2.339
				c0-0.951,0.273-1.73,0.819-2.338c0.546-0.606,1.258-0.91,2.135-0.91C344.187,115.24,344.899,115.543,345.445,116.15z
				 M344.458,119.965c0.271-0.378,0.406-0.87,0.406-1.478c0-0.606-0.135-1.099-0.406-1.477c-0.271-0.378-0.653-0.567-1.148-0.567
				c-0.495,0-0.877,0.189-1.148,0.567c-0.271,0.378-0.406,0.87-0.406,1.477c0,0.607,0.135,1.1,0.406,1.478
				c0.271,0.378,0.653,0.566,1.148,0.566C343.805,120.532,344.187,120.343,344.458,119.965z"/>
			<path fill="#585A5E" d="M347.566,121.596v-6.216h1.4v0.588c0.42-0.485,0.98-0.729,1.68-0.729c0.69,0,1.229,0.21,1.617,0.631
				c0.387,0.42,0.581,0.979,0.581,1.68v4.046h-1.4v-3.808c0-0.401-0.098-0.715-0.294-0.938c-0.196-0.224-0.49-0.336-0.882-0.336
				c-0.308,0-0.583,0.091-0.826,0.273c-0.243,0.182-0.401,0.422-0.476,0.721v4.088H347.566z"/>
			<path fill="#585A5E" d="M354.062,119.804h1.428c0.159,0.522,0.569,0.784,1.232,0.784c0.326,0,0.585-0.063,0.777-0.189
				c0.191-0.126,0.287-0.31,0.287-0.553c0-0.168-0.056-0.301-0.168-0.399c-0.112-0.098-0.299-0.179-0.56-0.244l-1.288-0.309
				c-1.027-0.242-1.54-0.812-1.54-1.708c0-0.56,0.222-1.024,0.665-1.393c0.443-0.369,1.005-0.554,1.687-0.554
				c0.709,0,1.274,0.161,1.694,0.483s0.686,0.772,0.798,1.351h-1.372c-0.14-0.457-0.518-0.686-1.134-0.686
				c-0.271,0-0.504,0.061-0.7,0.182c-0.196,0.122-0.294,0.299-0.294,0.532c0,0.271,0.215,0.462,0.644,0.574l1.316,0.308
				c1.064,0.252,1.596,0.84,1.596,1.765c0,0.606-0.227,1.09-0.679,1.448c-0.453,0.359-1.034,0.539-1.743,0.539
				c-0.728,0-1.328-0.172-1.799-0.518S354.155,120.402,354.062,119.804z"/>
			<path fill="#585A5E" d="M364.338,119.665h1.288c-0.112,0.635-0.395,1.139-0.847,1.512s-1.043,0.56-1.771,0.56
				c-0.868,0-1.575-0.298-2.121-0.896s-0.819-1.377-0.819-2.338c0-0.934,0.275-1.71,0.826-2.331s1.246-0.932,2.086-0.932
				c0.858,0,1.523,0.278,1.995,0.833c0.471,0.556,0.707,1.3,0.707,2.233v0.504h-4.242c0.019,0.542,0.17,0.969,0.455,1.281
				c0.284,0.312,0.655,0.469,1.113,0.469C363.745,120.56,364.188,120.261,364.338,119.665z M362.994,116.417
				c-0.392,0-0.721,0.119-0.987,0.356c-0.266,0.238-0.441,0.576-0.525,1.016h2.814c-0.009-0.401-0.126-0.73-0.35-0.987
				S363.404,116.417,362.994,116.417z"/>
		</g>
	</g>
	<g>
		<g>
			<path fill="#585A5E" d="M322.241,136.833c-0.542-0.602-0.812-1.383-0.812-2.346c0-0.961,0.271-1.742,0.812-2.344
				c0.541-0.602,1.236-0.904,2.086-0.904c0.728,0,1.321,0.189,1.778,0.568c0.458,0.377,0.733,0.885,0.826,1.52h-1.4
				c-0.056-0.281-0.189-0.496-0.399-0.645c-0.21-0.15-0.474-0.225-0.791-0.225c-0.458,0-0.824,0.189-1.099,0.566
				c-0.275,0.379-0.413,0.867-0.413,1.463c0,0.598,0.138,1.086,0.413,1.465c0.275,0.377,0.642,0.566,1.099,0.566
				c0.317,0,0.581-0.074,0.791-0.225c0.21-0.148,0.343-0.363,0.399-0.645h1.4c-0.093,0.635-0.369,1.143-0.826,1.52
				c-0.457,0.379-1.05,0.566-1.778,0.566C323.477,137.735,322.782,137.435,322.241,136.833z"/>
			<path fill="#585A5E" d="M332.964,137.597h-1.33v-0.35c-0.112,0.111-0.315,0.217-0.609,0.314
				c-0.294,0.098-0.604,0.146-0.931,0.146c-0.663,0-1.216-0.184-1.659-0.553s-0.665-0.861-0.665-1.477
				c0-0.58,0.231-1.057,0.693-1.436c0.462-0.379,1.039-0.566,1.729-0.566c0.271,0,0.546,0.039,0.826,0.119
				c0.28,0.078,0.485,0.166,0.616,0.258v-0.504c0-0.326-0.103-0.594-0.308-0.805c-0.206-0.209-0.5-0.314-0.882-0.314
				c-0.551,0-0.906,0.223-1.064,0.672h-1.344c0.093-0.541,0.366-0.988,0.819-1.338s0.992-0.525,1.617-0.525
				c0.784,0,1.395,0.203,1.834,0.609c0.438,0.406,0.658,0.965,0.658,1.674V137.597z M331.635,135.944v-0.518
				c-0.075-0.188-0.233-0.338-0.476-0.455s-0.509-0.176-0.798-0.176c-0.345,0-0.646,0.074-0.903,0.225
				c-0.257,0.148-0.385,0.369-0.385,0.658s0.126,0.51,0.378,0.664s0.555,0.23,0.91,0.23c0.29,0,0.556-0.057,0.798-0.174
				S331.56,136.132,331.635,135.944z"/>
			<path fill="#585A5E" d="M334.995,136.833c-0.542-0.602-0.812-1.383-0.812-2.346c0-0.961,0.271-1.742,0.812-2.344
				c0.541-0.602,1.236-0.904,2.086-0.904c0.728,0,1.321,0.189,1.778,0.568c0.458,0.377,0.733,0.885,0.826,1.52h-1.4
				c-0.056-0.281-0.189-0.496-0.399-0.645c-0.21-0.15-0.474-0.225-0.791-0.225c-0.458,0-0.824,0.189-1.099,0.566
				c-0.275,0.379-0.413,0.867-0.413,1.463c0,0.598,0.138,1.086,0.413,1.465c0.275,0.377,0.642,0.566,1.099,0.566
				c0.317,0,0.581-0.074,0.791-0.225c0.21-0.148,0.343-0.363,0.399-0.645h1.4c-0.093,0.635-0.369,1.143-0.826,1.52
				c-0.457,0.379-1.05,0.566-1.778,0.566C336.231,137.735,335.536,137.435,334.995,136.833z"/>
			<path fill="#585A5E" d="M340.93,137.597v-9.1h1.4v3.471c0.42-0.484,0.98-0.729,1.68-0.729c0.69,0,1.229,0.211,1.617,0.631
				s0.581,0.98,0.581,1.68v4.047h-1.4v-3.809c0-0.4-0.098-0.715-0.294-0.938c-0.196-0.225-0.49-0.336-0.882-0.336
				c-0.308,0-0.583,0.09-0.826,0.273c-0.243,0.182-0.401,0.422-0.476,0.721v4.088H340.93z"/>
			<path fill="#585A5E" d="M351.696,135.665h1.288c-0.112,0.635-0.395,1.139-0.847,1.512s-1.043,0.559-1.771,0.559
				c-0.868,0-1.575-0.297-2.121-0.895s-0.819-1.377-0.819-2.338c0-0.934,0.275-1.711,0.826-2.332s1.246-0.932,2.086-0.932
				c0.858,0,1.523,0.279,1.995,0.834s0.707,1.299,0.707,2.232v0.504h-4.242c0.019,0.543,0.17,0.969,0.455,1.281
				c0.284,0.312,0.655,0.469,1.113,0.469C351.104,136.56,351.547,136.261,351.696,135.665z M350.352,132.417
				c-0.392,0-0.721,0.119-0.987,0.355c-0.266,0.238-0.441,0.576-0.525,1.016h2.814c-0.009-0.4-0.126-0.73-0.35-0.986
				C351.08,132.544,350.763,132.417,350.352,132.417z"/>
			<path fill="#585A5E" d="M358.36,137.597v-0.533c-0.149,0.188-0.369,0.346-0.658,0.477c-0.29,0.131-0.598,0.195-0.924,0.195
				c-0.887,0-1.589-0.309-2.107-0.93s-0.777-1.393-0.777-2.318c0-0.924,0.259-1.695,0.777-2.316s1.22-0.932,2.107-0.932
				c0.327,0,0.635,0.066,0.924,0.197c0.289,0.131,0.508,0.289,0.658,0.477v-3.417h1.4v9.1H358.36z M358.36,135.665v-2.354
				c-0.121-0.242-0.303-0.439-0.546-0.594s-0.509-0.232-0.798-0.232c-0.532,0-0.952,0.188-1.26,0.561s-0.462,0.854-0.462,1.441
				c0,0.59,0.154,1.07,0.462,1.443s0.728,0.559,1.26,0.559c0.289,0,0.555-0.076,0.798-0.23S358.239,135.907,358.36,135.665z"/>
		</g>
	</g>
</g>
</svg>
